<svg width="30" height="26" viewBox="0 0 30 26" fill="none" xmlns="http://www.w3.org/2000/svg">
<path d="M3 26C2.175 26 1.46875 25.6818 0.88125 25.0453C0.29375 24.4089 0 23.6437 0 22.75V3.25C0 2.35625 0.29375 1.59115 0.88125 0.954687C1.46875 0.318229 2.175 0 3 0H27C27.825 0 28.5313 0.318229 29.1188 0.954687C29.7063 1.59115 30 2.35625 30 3.25V22.75C30 23.6437 29.7063 24.4089 29.1188 25.0453C28.5313 25.6818 27.825 26 27 26H3ZM15 14.625L3 6.5V22.75H27V6.5L15 14.625ZM15 11.375L27 3.25H3L15 11.375ZM3 6.5V3.25V22.75V6.5Z" fill="#22346E"/>
</svg>
