<svg width="40" height="41" viewBox="0 0 40 41" fill="none" xmlns="http://www.w3.org/2000/svg">
<path d="M24.3406 40.5352H5.66918C2.54578 40.5352 0.00488281 38.5054 0.00488281 36.0103V5.06005C0.00488281 2.56493 2.54578 0.535156 5.66918 0.535156H24.3406C27.4634 0.535156 30.0049 2.56493 30.0049 5.06005V36.0107C30.0049 38.5054 27.464 40.5352 24.3406 40.5352ZM5.66918 2.31293C3.7731 2.31293 2.23032 3.54493 2.23032 5.06005V36.0107C2.23032 37.5254 3.77255 38.7578 5.66918 38.7578H24.3406C26.2367 38.7578 27.7794 37.5258 27.7794 36.0107V5.06005C27.7794 3.54493 26.2367 2.31293 24.3406 2.31293H5.66918Z" fill="#22346E"/>
<path d="M15.007 37.2143C16.0038 37.2143 16.8118 36.5688 16.8118 35.7725C16.8118 34.9762 16.0038 34.3307 15.007 34.3307C14.0102 34.3307 13.2021 34.9762 13.2021 35.7725C13.2021 36.5688 14.0102 37.2143 15.007 37.2143Z" fill="#22346E"/>
<path d="M18.4144 5.83507H11.5956C10.9814 5.83507 10.4829 5.43684 10.4829 4.94618C10.4829 4.45551 10.9814 4.05729 11.5956 4.05729H18.4144C19.0286 4.05729 19.5271 4.45551 19.5271 4.94618C19.5271 5.43684 19.0286 5.83507 18.4144 5.83507Z" fill="#22346E"/>
<path d="M39.5591 5.53516H35.4142C35.0171 5.53516 34.8182 6.01515 35.0991 6.29604L36.3869 7.58381L28.8714 15.0993L26.2396 12.4675L25.5343 11.7622C25.2956 11.5236 24.9087 11.5236 24.6701 11.7622L20.1839 16.2482C19.9452 16.4869 19.9452 16.8737 20.1839 17.1124L20.8892 17.8177C21.1279 18.0564 21.5148 18.0564 21.7534 17.8177L25.1021 14.4691L28.4341 17.8011C28.6727 18.0397 29.0596 18.0397 29.2983 17.8011L29.6569 17.4424C29.6754 17.4277 29.6947 17.4146 29.7118 17.3975L37.9562 9.15313L39.244 10.4409C39.5249 10.7218 40.0049 10.5229 40.0049 10.1258V5.98093C40.0049 5.73471 39.8053 5.53516 39.5591 5.53516Z" fill="#22346E"/>
<path d="M34.5884 13.9349V24.9237C34.5884 25.2613 34.8619 25.5348 35.1995 25.5348H37.151C37.4886 25.5348 37.7621 25.2613 37.7621 24.9237V10.7612L34.5884 13.9349Z" fill="#22346E"/>
<path d="M30.4749 18.0487V24.9238C30.4749 25.2613 30.7484 25.5349 31.086 25.5349H33.0375C33.3751 25.5349 33.6486 25.2613 33.6486 24.9238V14.875L30.4749 18.0487Z" fill="#22346E"/>
<path d="M28.8662 18.9803C28.4357 18.9803 28.0313 18.8128 27.7269 18.5083L26.3611 17.1428V24.9241C26.3611 25.2616 26.6346 25.5352 26.9722 25.5352H28.9237C29.2613 25.5352 29.5348 25.2616 29.5348 24.9241V18.8339C29.3275 18.9288 29.1011 18.9803 28.8662 18.9803Z" fill="#22346E"/>
<path d="M25.102 15.8833L22.4607 18.5246C22.3944 18.5908 22.3227 18.6495 22.2476 18.7024V24.9239C22.2476 25.2614 22.5211 25.535 22.8587 25.535H24.8102C25.1478 25.535 25.4213 25.2614 25.4213 24.9239V16.2026L25.102 15.8833Z" fill="#22346E"/>
<path d="M15.0049 15.5352C12.2434 15.5352 10.0049 17.7737 10.0049 20.5352C10.0049 23.2966 12.2434 25.5352 15.0049 25.5352C17.7663 25.5352 20.0049 23.2966 20.0049 20.5352C20.0049 17.7737 17.7663 15.5352 15.0049 15.5352ZM15.0049 24.8129C12.6423 24.8129 10.7271 22.8977 10.7271 20.5352C10.7271 18.1726 12.6423 16.2574 15.0049 16.2574C17.3674 16.2574 19.2827 18.1726 19.2827 20.5352C19.2827 22.8977 17.3674 24.8129 15.0049 24.8129Z" fill="#22346E"/>
<path d="M15.5305 20.1728H14.4792C14.3726 20.1728 14.2826 20.0828 14.2826 19.9763V19.1606C14.2826 19.054 14.3726 18.964 14.4792 18.964H15.5305C15.6371 18.964 15.7271 19.054 15.7271 19.1606H16.3937C16.3937 18.6846 16.0065 18.2974 15.5305 18.2974H15.3382V17.686H14.6715V18.2974H14.4792C14.0032 18.2974 13.616 18.6846 13.616 19.1606V19.9763C13.616 20.4523 14.0032 20.8395 14.4792 20.8395L15.5305 20.8396C15.6371 20.8396 15.7271 20.9296 15.7271 21.0361V21.8518C15.7271 21.9584 15.6371 22.0485 15.5305 22.0485H14.4792C14.3726 22.0485 14.2826 21.9584 14.2826 21.8518H13.616C13.616 22.3278 14.0032 22.7151 14.4792 22.7151H14.6715V23.3265H15.3382V22.7151H15.5305C16.0064 22.7151 16.3937 22.3279 16.3937 21.8518V21.0361C16.3937 20.56 16.0065 20.1728 15.5305 20.1728Z" fill="#22346E"/>
</svg>
