<svg width="40" height="31" viewBox="0 0 40 31" fill="none" xmlns="http://www.w3.org/2000/svg">
<path d="M31.3452 13.7667H25.7207C25.5923 13.7667 25.4886 13.6672 25.4886 13.5445C25.4886 13.4218 25.5923 13.3223 25.7207 13.3223H31.0549C31.3139 12.78 31.4453 12.2058 31.4453 11.6138C31.4453 9.33449 29.5084 7.48005 27.1277 7.48005C26.9415 7.48005 26.7456 7.49493 26.5105 7.52716L26.2905 7.55738L26.2496 7.34827C25.8676 5.39627 24.0841 3.9796 22.0091 3.9796C19.9338 3.9796 18.1503 5.39627 17.7685 7.34827L17.7277 7.5576L17.5076 7.52738C17.2725 7.49516 17.0766 7.48027 16.8905 7.48027C14.5098 7.48027 12.5729 9.33471 12.5729 11.614C12.5729 12.206 12.704 12.78 12.963 13.3225H18.4484C18.5765 13.3225 18.6805 13.422 18.6805 13.5447C18.6805 13.6674 18.5765 13.7669 18.4484 13.7669H12.6727L12.6086 13.6434C12.2769 13.0029 12.1086 12.3203 12.1086 11.614C12.1086 9.0896 14.2538 7.03582 16.8905 7.03582C17.0381 7.03582 17.1901 7.04404 17.3575 7.06138C17.8616 5.00582 19.7839 3.53516 22.0091 3.53516C24.2343 3.53516 26.1563 5.00582 26.6607 7.06138C26.8283 7.04404 26.9801 7.03582 27.1279 7.03582C29.7644 7.03582 31.9097 9.0896 31.9097 11.614C31.9097 12.3205 31.7415 13.0032 31.4095 13.6434L31.3452 13.7667Z" fill="#22346E"/>
<path d="M22.2411 20.2869V11.0044C22.2411 10.8818 22.1371 10.7822 22.009 10.7822C21.8809 10.7822 21.7769 10.8818 21.7769 11.0044V20.2869C20.9464 20.396 20.3037 21.078 20.3037 21.9024C20.3037 22.8027 21.0687 23.5351 22.009 23.5351C22.9492 23.5351 23.7143 22.8027 23.7143 21.9024C23.714 21.078 23.0716 20.3958 22.2411 20.2869ZM22.009 23.0907C21.3247 23.0907 20.7679 22.5578 20.7679 21.9024C20.7679 21.2471 21.3245 20.7142 22.009 20.7142C22.6935 20.7142 23.25 21.2471 23.25 21.9024C23.25 22.5578 22.6932 23.0907 22.009 23.0907Z" fill="#22346E"/>
<path d="M30.2997 15.868C29.4383 15.868 28.726 16.4831 28.6123 17.2784H24.4476V11.0044C24.4476 10.8818 24.3439 10.7822 24.2155 10.7822C24.0871 10.7822 23.9834 10.8818 23.9834 11.0044V17.7227H28.6123C28.7262 18.5178 29.4386 19.1331 30.2997 19.1331C31.2399 19.1331 32.0049 18.4007 32.0049 17.5004C32.0049 16.6002 31.2399 15.868 30.2997 15.868ZM30.2997 18.6887C29.6154 18.6887 29.0586 18.1558 29.0586 17.5004C29.0586 16.8451 29.6152 16.3122 30.2997 16.3122C30.9841 16.3122 31.5407 16.8451 31.5407 17.5004C31.5407 18.1558 30.9841 18.6887 30.2997 18.6887Z" fill="#22346E"/>
<path d="M20.0427 11.0044C20.0427 10.8818 19.9387 10.7822 19.8106 10.7822C19.6824 10.7822 19.5785 10.8818 19.5785 11.0044V17.2782H15.3976C15.2838 16.4831 14.5715 15.8678 13.7102 15.8678C12.7699 15.8678 12.0049 16.6002 12.0049 17.5004C12.0049 18.4007 12.7699 19.1331 13.7102 19.1331C14.5715 19.1331 15.2836 18.518 15.3976 17.7227H20.0427V11.0044ZM13.7102 18.6887C13.0259 18.6887 12.4691 18.1558 12.4691 17.5004C12.4691 16.8451 13.0257 16.3122 13.7102 16.3122C14.3944 16.3122 14.951 16.8451 14.951 17.5004C14.951 18.1558 14.3942 18.6887 13.7102 18.6887Z" fill="#22346E"/>
<path d="M14.5788 10.4883C14.5445 10.4883 14.5096 10.4809 14.4767 10.4654C14.3616 10.4111 14.3142 10.278 14.3708 10.1678C14.8 9.33226 15.6704 8.81293 16.6425 8.81293C16.7534 8.81293 16.8681 8.82159 17.0038 8.84026C17.1306 8.85759 17.2188 8.97026 17.2007 9.09182C17.1823 9.21315 17.0647 9.29648 16.9379 9.28026C16.8247 9.26471 16.7307 9.25737 16.6427 9.25737C15.8489 9.25737 15.1382 9.68137 14.7877 10.3638C14.7469 10.4427 14.6645 10.4883 14.5788 10.4883Z" fill="#22346E"/>
<path d="M36.5693 2.06462C36.6355 2.06462 36.6893 2.12465 36.6893 2.19857V25.1009H3.31997V2.19857C3.31997 2.12465 3.37375 2.06462 3.43997 2.06462H36.5693ZM36.5693 0.535156H3.44042C2.61731 0.535156 1.9502 1.2798 1.9502 2.19857V26.6299H38.0595V2.19857C38.0595 1.2798 37.3924 0.535156 36.5693 0.535156Z" fill="#22346E"/>
<path d="M39.2461 27.9911C39.2461 28.9287 38.5652 29.6882 37.7257 29.6882H2.28387C1.44387 29.6882 0.763428 28.9282 0.763428 27.9911" fill="#22346E"/>
<path d="M37.7258 30.5352H2.28399C1.0271 30.5352 0.00488281 29.3937 0.00488281 27.9907H1.52222C1.52222 28.46 1.86399 28.8415 2.28399 28.8415H37.7258C38.1462 28.8415 38.488 28.46 38.488 27.9907H40.0049C40.0049 29.3937 38.9822 30.5352 37.7258 30.5352Z" fill="#22346E"/>
</svg>
