<svg width="100" height="101" viewBox="0 0 100 101" fill="none" xmlns="http://www.w3.org/2000/svg">
<path d="M70.2753 100.484V94.9283H91.8969V75.2061C91.8969 69.7894 90.0613 65.1945 86.3901 61.4214C82.7189 57.6482 78.2482 55.7617 72.978 55.7617C67.7077 55.7617 63.237 57.6482 59.5658 61.4214C55.8946 65.1945 54.059 69.7894 54.059 75.2061V92.1506H51.3563C49.8698 92.1506 48.5973 91.6066 47.5388 90.5186C46.4802 89.4306 45.9509 88.1228 45.9509 86.595V81.0394C45.9509 80.0672 46.1874 79.1529 46.6604 78.2964C47.1334 77.4399 47.7978 76.757 48.6536 76.2478L48.8563 72.5672C49.2167 69.4191 50.1063 66.5024 51.5253 63.8172C52.9442 61.132 54.7234 58.7941 56.8631 56.8033C59.0027 54.8126 61.4577 53.2617 64.228 52.1506C66.9982 51.0394 69.9149 50.4839 72.978 50.4839C76.041 50.4839 78.9464 51.0394 81.6942 52.1506C84.4419 53.2617 86.8969 54.801 89.059 56.7686C91.2212 58.7362 93.0005 61.0626 94.3969 63.7478C95.7933 66.433 96.6942 69.3496 97.0996 72.4978L97.3023 76.1089C98.1581 76.5256 98.8226 77.1506 99.2955 77.9839C99.7685 78.8172 100.005 79.6968 100.005 80.6228V87.0117C100.005 87.9376 99.7685 88.8172 99.2955 89.6506C98.8226 90.4839 98.1581 91.1089 97.3023 91.5256V94.9283C97.3023 96.4561 96.773 97.764 95.7144 98.8519C94.6559 99.9399 93.3834 100.484 91.8969 100.484H70.2753ZM64.8698 81.0394C64.1041 81.0394 63.4622 80.7732 62.9442 80.2408C62.4262 79.7084 62.1671 79.0487 62.1671 78.2617C62.1671 77.4746 62.4262 76.8149 62.9442 76.2825C63.4622 75.7501 64.1041 75.4839 64.8698 75.4839C65.6356 75.4839 66.2775 75.7501 66.7955 76.2825C67.3135 76.8149 67.5725 77.4746 67.5725 78.2617C67.5725 79.0487 67.3135 79.7084 66.7955 80.2408C66.2775 80.7732 65.6356 81.0394 64.8698 81.0394ZM81.0861 81.0394C80.3203 81.0394 79.6784 80.7732 79.1604 80.2408C78.6424 79.7084 78.3834 79.0487 78.3834 78.2617C78.3834 77.4746 78.6424 76.8149 79.1604 76.2825C79.6784 75.7501 80.3203 75.4839 81.0861 75.4839C81.8518 75.4839 82.4937 75.7501 83.0117 76.2825C83.5298 76.8149 83.7888 77.4746 83.7888 78.2617C83.7888 79.0487 83.5298 79.7084 83.0117 80.2408C82.4937 80.7732 81.8518 81.0394 81.0861 81.0394ZM56.8293 76.7339C56.514 71.8265 57.9554 67.6135 61.1536 64.095C64.3518 60.5765 68.3383 58.8172 73.1131 58.8172C77.1221 58.8172 80.6469 60.1251 83.6874 62.7408C86.728 65.3566 88.5635 68.7015 89.1942 72.7756C85.0951 72.7293 81.3226 71.595 77.8766 69.3728C74.4307 67.1506 71.7843 64.1413 69.9374 60.345C69.2167 64.0487 67.6964 67.3473 65.3766 70.2408C63.0568 73.1343 60.2077 75.2987 56.8293 76.7339Z" fill="#22346E"/>
<path d="M11.6575 42.4149H0.894874C0.403599 42.4149 0.00488281 42.0051 0.00488281 41.5002C0.00488281 40.9952 0.403599 40.5854 0.894874 40.5854H11.6567C12.1479 40.5854 12.5466 40.9952 12.5466 41.5002C12.5466 42.0051 12.1488 42.4149 11.6575 42.4149Z" fill="#22346E"/>
<path d="M78.9307 42.4149H68.1681C67.6759 42.4149 67.2781 42.0051 67.2781 41.5002C67.2781 40.9952 67.6759 40.5854 68.1681 40.5854H78.9307C79.4229 40.5854 79.8207 40.9952 79.8207 41.5002C79.8207 42.0051 79.422 42.4149 78.9307 42.4149Z" fill="#22346E"/>
<path d="M59.8927 21.8802C59.6648 21.8802 59.437 21.7906 59.2634 21.6122C58.9154 21.2545 58.9154 20.6764 59.2634 20.3188L66.8738 12.498C67.2217 12.1403 67.7842 12.1403 68.1322 12.498C68.4802 12.8556 68.4802 13.4337 68.1322 13.7914L60.5219 21.6122C60.3483 21.7906 60.1205 21.8802 59.8927 21.8802Z" fill="#22346E"/>
<path d="M39.9132 13.374C39.4219 13.374 39.0232 12.9642 39.0232 12.4593V1.3986C39.0232 0.893678 39.4219 0.483887 39.9132 0.483887C40.4045 0.483887 40.8032 0.893678 40.8032 1.3986V12.4593C40.8032 12.9652 40.4045 13.374 39.9132 13.374Z" fill="#22346E"/>
<path d="M19.9339 21.8802C19.706 21.8802 19.4782 21.7906 19.3047 21.6122L11.6943 13.7914C11.3464 13.4337 11.3464 12.8556 11.6943 12.498C12.0423 12.1403 12.6048 12.1403 12.9528 12.498L20.5631 20.3188C20.9111 20.6764 20.9111 21.2545 20.5631 21.6122C20.3887 21.7906 20.1608 21.8802 19.9339 21.8802Z" fill="#22346E"/>
<path d="M39.8844 50.1388C38.4079 50.1388 36.992 49.5415 35.9436 48.464C34.791 47.2785 34.2036 45.6366 34.3318 43.959C34.5445 41.1911 36.7356 38.9391 39.4288 38.7205C41.061 38.5887 42.6585 39.1915 43.812 40.377C44.9654 41.5625 45.5528 43.2044 45.4246 44.882C45.2128 47.6499 43.0217 49.9019 40.3277 50.1215C40.179 50.1324 40.0313 50.1388 39.8844 50.1388ZM39.8711 40.5325C39.7705 40.5325 39.6691 40.5362 39.5685 40.5453C37.7387 40.6935 36.2506 42.2229 36.1064 44.1036C36.0183 45.2469 36.4179 46.3656 37.2011 47.1715C37.9852 47.9774 39.0683 48.3872 40.1861 48.2975C42.016 48.1493 43.5049 46.619 43.6482 44.7393C43.7363 43.595 43.3358 42.4772 42.5526 41.6713C41.8406 40.9386 40.8768 40.5325 39.8711 40.5325Z" fill="#22346E"/>
<path d="M43.3157 67.5094H41.5357V55.6355C41.5357 54.7016 42.1044 53.871 42.9491 53.571C43.3095 53.4429 43.6637 53.292 44.001 53.1228C44.8038 52.7194 45.7739 52.8914 46.4147 53.549L46.574 53.7119L48.9182 51.3025L48.7607 51.1406C48.119 50.4811 47.9517 49.4841 48.3433 48.6599C48.5106 48.3087 48.6575 47.9455 48.7803 47.5787C49.0731 46.7088 49.8803 46.1252 50.7899 46.1252H51.0035V42.7179H50.789C49.8803 42.7179 49.0731 42.1343 48.7803 41.2663C48.6566 40.8967 48.5097 40.5336 48.3433 40.1842C47.9517 39.3591 48.119 38.3621 48.7607 37.7035L48.9182 37.5416L46.574 35.1322L46.4156 35.2941C45.7748 35.9536 44.8056 36.1247 44.0019 35.7222C43.661 35.5511 43.3077 35.3993 42.9491 35.2722C42.1044 34.973 41.5357 34.1434 41.5357 33.2086V32.9881H38.2205V33.2086C38.2205 34.1434 37.6527 34.973 36.8072 35.2731C36.4477 35.4011 36.0934 35.5521 35.7552 35.7222C34.9525 36.1256 33.9824 35.9536 33.3416 35.295L33.1841 35.1331L30.8389 37.5425L30.9965 37.7044C31.6381 38.3639 31.8055 39.36 31.413 40.1842C31.2457 40.5363 31.0979 40.9004 30.976 41.2654C30.6832 42.1353 29.8769 42.7188 28.9673 42.7188H28.7528V46.1261H28.9673C29.876 46.1261 30.6832 46.7097 30.976 47.5778C31.0988 47.9428 31.2457 48.3077 31.4139 48.6617C31.8055 49.485 31.6381 50.482 30.9974 51.1415L30.8398 51.3034L33.185 53.7128L33.3416 53.5509C33.9842 52.8923 34.9551 52.7212 35.7552 53.1228C36.0934 53.2938 36.4477 53.4448 36.8072 53.5719C37.6527 53.8719 38.2205 54.7016 38.2205 55.6364V67.5103H36.4405V55.6355C36.4405 55.4828 36.3524 55.3455 36.2261 55.3007C35.7971 55.1489 35.3752 54.9687 34.9721 54.7647C34.8564 54.7071 34.7015 54.7382 34.5992 54.8443L34.1622 55.2943C33.621 55.8477 32.7444 55.8468 32.2069 55.2943L29.2993 52.3069C28.7608 51.7516 28.7617 50.8506 29.2993 50.2982L29.738 49.8472C29.8404 49.742 29.8715 49.5847 29.8137 49.4639C29.6134 49.0423 29.439 48.6087 29.293 48.1742C29.2494 48.0461 29.115 47.9556 28.9664 47.9556H28.3541C27.5922 47.9556 26.9719 47.3189 26.9719 46.535V42.31C26.9719 41.527 27.5922 40.8894 28.3541 40.8894H28.9664C29.115 40.8894 29.2485 40.7989 29.293 40.669C29.439 40.2336 29.6143 39.8 29.8128 39.381C29.8697 39.2603 29.8386 39.103 29.7371 38.9978L29.2984 38.5468C28.7599 37.9934 28.7599 37.0924 29.2975 36.5381L32.206 33.5498C32.7444 32.9973 33.6202 32.9963 34.1604 33.5488L34.6 34.0016C34.7024 34.1068 34.8564 34.1388 34.9729 34.0785C35.3752 33.8763 35.7962 33.6961 36.2252 33.5443C36.3524 33.4994 36.4405 33.3613 36.4405 33.2086V32.5792C36.4405 31.7962 37.0609 31.1587 37.8227 31.1587H41.9336C42.6954 31.1587 43.3157 31.7962 43.3157 32.5792V33.2086C43.3157 33.3613 43.4038 33.4985 43.5302 33.5433C43.9565 33.6952 44.3775 33.8745 44.7824 34.0785C44.9017 34.1361 45.0539 34.105 45.1562 34.0007L45.595 33.5498C46.1343 32.9954 47.0119 32.9963 47.5494 33.5498L50.457 36.5372C50.9955 37.0915 50.9946 37.9925 50.457 38.5459L50.0183 38.9969C49.9159 39.1021 49.8848 39.2603 49.9417 39.3801C50.1402 39.7954 50.3155 40.229 50.4624 40.669C50.506 40.7979 50.6395 40.8885 50.7881 40.8885H51.4004C52.1622 40.8885 52.7826 41.5261 52.7826 42.309V46.5341C52.7826 47.3171 52.1631 47.9547 51.4004 47.9547H50.789C50.6404 47.9547 50.506 48.0461 50.4624 48.1751C50.3155 48.6123 50.1411 49.045 49.9417 49.463C49.8848 49.5838 49.9159 49.7411 50.0183 49.8463L50.457 50.2972C50.9946 50.8497 50.9955 51.7507 50.4588 52.3041L47.5494 55.2934C47.0101 55.8477 46.1326 55.8459 45.595 55.2934L45.1562 54.8425C45.0539 54.7373 44.899 54.7062 44.7833 54.7647C44.381 54.9678 43.9592 55.148 43.5302 55.2998C43.4038 55.3446 43.3157 55.4818 43.3157 55.6346V67.5094Z" fill="#22346E"/>
<path d="M56.6296 25.6519C51.7836 20.9 45.4157 18.4549 38.7069 18.7861C26.6636 19.3687 16.7758 29.0976 15.706 41.4179C14.9433 50.2056 18.6091 58.566 25.5137 63.7808C27.6781 65.4154 28.9695 68.1504 28.9695 71.0967V77.8875C28.9695 80.6006 31.1171 82.8078 33.7568 82.8078H46.805C49.4447 82.8078 51.5922 80.6006 51.5922 77.8875V70.472C51.5922 67.6638 52.905 64.9544 55.1922 63.0399C60.8846 58.2788 64.1491 51.231 64.1491 43.7038C64.1491 36.8169 61.4782 30.4066 56.6296 25.6519ZM46.805 80.9774H33.7568C32.0987 80.9774 30.7495 79.5907 30.7495 77.8866V72.0105H49.8122V77.8866C49.8122 79.5907 48.463 80.9774 46.805 80.9774ZM54.0691 61.6203C51.4418 63.8174 49.9155 66.9256 49.8283 70.1811H30.6988C30.4531 67.0088 28.9571 64.111 26.5674 62.3063C20.1693 57.473 16.7722 49.7244 17.4788 41.5798C18.4694 30.166 27.6319 21.1524 38.7906 20.6128C39.1581 20.5945 39.5239 20.5862 39.8879 20.5862C45.7023 20.5862 51.1757 22.8318 55.4014 26.9755C59.895 31.3817 62.3691 37.3227 62.3691 43.7029C62.3691 50.6766 59.344 57.2077 54.0691 61.6203Z" fill="#22346E"/>
</svg>
