<svg width="30" height="28" viewBox="0 0 30 28" fill="none" xmlns="http://www.w3.org/2000/svg">
<path d="M13.5 28V24.8889H25.5V13.8444C25.5 10.8111 24.4813 8.23796 22.4438 6.125C20.4062 4.01204 17.925 2.95556 15 2.95556C12.075 2.95556 9.59375 4.01204 7.55625 6.125C5.51875 8.23796 4.5 10.8111 4.5 13.8444V23.3333H3C2.175 23.3333 1.46875 23.0287 0.88125 22.4194C0.29375 21.8102 0 21.0778 0 20.2222V17.1111C0 16.5667 0.13125 16.0546 0.39375 15.575C0.65625 15.0954 1.025 14.713 1.5 14.4278L1.6125 12.3667C1.8125 10.6037 2.30625 8.97037 3.09375 7.46667C3.88125 5.96296 4.86875 4.6537 6.05625 3.53889C7.24375 2.42407 8.60625 1.55556 10.1438 0.933333C11.6813 0.311111 13.3 0 15 0C16.7 0 18.3125 0.311111 19.8375 0.933333C21.3625 1.55556 22.725 2.41759 23.925 3.51944C25.125 4.6213 26.1125 5.92407 26.8875 7.42778C27.6625 8.93148 28.1625 10.5648 28.3875 12.3278L28.5 14.35C28.975 14.5833 29.3438 14.9333 29.6063 15.4C29.8688 15.8667 30 16.3593 30 16.8778V20.4556C30 20.9741 29.8688 21.4667 29.6063 21.9333C29.3438 22.4 28.975 22.75 28.5 22.9833V24.8889C28.5 25.7444 28.2063 26.4769 27.6188 27.0861C27.0313 27.6954 26.325 28 25.5 28H13.5ZM10.5 17.1111C10.075 17.1111 9.71875 16.962 9.43125 16.6639C9.14375 16.3657 9 15.9963 9 15.5556C9 15.1148 9.14375 14.7454 9.43125 14.4472C9.71875 14.1491 10.075 14 10.5 14C10.925 14 11.2812 14.1491 11.5688 14.4472C11.8563 14.7454 12 15.1148 12 15.5556C12 15.9963 11.8563 16.3657 11.5688 16.6639C11.2812 16.962 10.925 17.1111 10.5 17.1111ZM19.5 17.1111C19.075 17.1111 18.7188 16.962 18.4313 16.6639C18.1438 16.3657 18 15.9963 18 15.5556C18 15.1148 18.1438 14.7454 18.4313 14.4472C18.7188 14.1491 19.075 14 19.5 14C19.925 14 20.2812 14.1491 20.5688 14.4472C20.8563 14.7454 21 15.1148 21 15.5556C21 15.9963 20.8563 16.3657 20.5688 16.6639C20.2812 16.962 19.925 17.1111 19.5 17.1111ZM6.0375 14.7C5.8625 11.9519 6.6625 9.59259 8.4375 7.62222C10.2125 5.65185 12.425 4.66667 15.075 4.66667C17.3 4.66667 19.2563 5.39907 20.9438 6.86389C22.6313 8.3287 23.65 10.2019 24 12.4833C21.725 12.4574 19.6313 11.8222 17.7188 10.5778C15.8063 9.33333 14.3375 7.64815 13.3125 5.52222C12.9125 7.5963 12.0688 9.44352 10.7812 11.0639C9.49375 12.6843 7.9125 13.8963 6.0375 14.7Z" fill="#22346E"/>
</svg>
