<svg width="36" height="36" viewBox="0 0 36 36" fill="none" xmlns="http://www.w3.org/2000/svg">
<path d="M17.8965 35.479C12.8288 34.4582 8.64518 32.1321 5.3457 28.5009C2.04622 24.8696 0.396484 20.8373 0.396484 16.404V5.729L17.8965 0.479004L35.3965 5.729V16.404C35.3965 20.8373 33.7467 24.8696 30.4473 28.5009C27.1478 32.1321 22.9642 34.4582 17.8965 35.479ZM17.8965 31.804C21.6882 30.8415 24.8236 28.9165 27.3027 26.029C29.7819 23.1415 31.0215 19.9332 31.0215 16.404V8.13525L17.8965 4.19775L4.77148 8.13525V16.404C4.77148 19.9332 6.01107 23.1415 8.49023 26.029C10.9694 28.9165 14.1048 30.8415 17.8965 31.804Z" fill="#22346E"/>
<path d="M13.858 22.6457C13.4878 22.6457 13.1709 22.5151 12.9073 22.254C12.6437 21.9929 12.5118 21.679 12.5118 21.3124V14.6457C12.5118 14.279 12.6437 13.9651 12.9073 13.704C13.1709 13.4429 13.4878 13.3124 13.858 13.3124H14.5311V11.979C14.5311 11.0568 14.8592 10.2707 15.5154 9.62069C16.1717 8.97069 16.9654 8.64569 17.8965 8.64569C18.8275 8.64569 19.6212 8.97069 20.2775 9.62069C20.9337 10.2707 21.2618 11.0568 21.2618 11.979V13.3124H21.9349C22.3051 13.3124 22.622 13.4429 22.8856 13.704C23.1493 13.9651 23.2811 14.279 23.2811 14.6457V21.3124C23.2811 21.679 23.1493 21.9929 22.8856 22.254C22.622 22.5151 22.3051 22.6457 21.9349 22.6457H13.858ZM13.858 21.3124H21.9349V14.6457H13.858V21.3124ZM17.8965 19.3124C18.2666 19.3124 18.5836 19.1818 18.8472 18.9207C19.1108 18.6596 19.2426 18.3457 19.2426 17.979C19.2426 17.6124 19.1108 17.2985 18.8472 17.0374C18.5836 16.7762 18.2666 16.6457 17.8965 16.6457C17.5263 16.6457 17.2094 16.7762 16.9457 17.0374C16.6821 17.2985 16.5503 17.6124 16.5503 17.979C16.5503 18.3457 16.6821 18.6596 16.9457 18.9207C17.2094 19.1818 17.5263 19.3124 17.8965 19.3124ZM15.8772 13.3124H19.9157V11.979C19.9157 11.4235 19.7194 10.9512 19.3267 10.5624C18.9341 10.1735 18.4574 9.97902 17.8965 9.97902C17.3356 9.97902 16.8588 10.1735 16.4662 10.5624C16.0735 10.9512 15.8772 11.4235 15.8772 11.979V13.3124Z" fill="#22346E"/>
</svg>
