<svg width="164" height="19" viewBox="0 0 164 19" fill="none" xmlns="http://www.w3.org/2000/svg">
<path d="M7.11 1.328C8.334 1.328 9.42 1.604 10.368 2.156C11.316 2.696 12.054 3.452 12.582 4.424C13.11 5.396 13.374 6.5 13.374 7.736C13.374 8.972 13.11 10.082 12.582 11.066C12.054 12.038 11.316 12.8 10.368 13.352C9.42 13.892 8.334 14.162 7.11 14.162C5.886 14.162 4.794 13.892 3.834 13.352C2.886 12.8 2.148 12.038 1.62 11.066C1.092 10.082 0.828 8.972 0.828 7.736C0.828 6.5 1.092 5.396 1.62 4.424C2.148 3.452 2.886 2.696 3.834 2.156C4.794 1.604 5.886 1.328 7.11 1.328ZM7.11 2.156C6.018 2.156 5.064 2.384 4.248 2.84C3.444 3.296 2.82 3.95 2.376 4.802C1.944 5.642 1.728 6.62 1.728 7.736C1.728 8.852 1.944 9.83 2.376 10.67C2.82 11.51 3.444 12.164 4.248 12.632C5.064 13.1 6.018 13.334 7.11 13.334C8.19 13.334 9.132 13.1 9.936 12.632C10.752 12.164 11.376 11.51 11.808 10.67C12.252 9.83 12.474 8.852 12.474 7.736C12.474 6.62 12.252 5.642 11.808 4.802C11.376 3.95 10.758 3.296 9.954 2.84C9.15 2.384 8.202 2.156 7.11 2.156ZM7.056 3.596C6.324 3.596 5.658 3.77 5.058 4.118C4.458 4.454 3.984 4.934 3.636 5.558C3.3 6.182 3.132 6.902 3.132 7.718C3.132 8.534 3.306 9.26 3.654 9.896C4.002 10.52 4.47 11.006 5.058 11.354C5.658 11.69 6.324 11.858 7.056 11.858C7.968 11.858 8.754 11.618 9.414 11.138C10.074 10.646 10.518 10.004 10.746 9.212H8.874C8.718 9.596 8.496 9.89 8.208 10.094C7.92 10.298 7.536 10.4 7.056 10.4C6.42 10.4 5.91 10.172 5.526 9.716C5.142 9.248 4.95 8.582 4.95 7.718C4.95 6.854 5.142 6.194 5.526 5.738C5.91 5.282 6.42 5.054 7.056 5.054C7.512 5.054 7.896 5.156 8.208 5.36C8.532 5.564 8.754 5.858 8.874 6.242H10.746C10.518 5.402 10.08 4.754 9.432 4.298C8.784 3.83 7.992 3.596 7.056 3.596ZM19.5449 7.718C19.5449 6.494 19.8269 5.396 20.3909 4.424C20.9669 3.452 21.7409 2.696 22.7129 2.156C23.6969 1.604 24.7709 1.328 25.9349 1.328C27.2669 1.328 28.4489 1.658 29.4809 2.318C30.5249 2.966 31.2809 3.89 31.7489 5.09H29.2829C28.9589 4.43 28.5089 3.938 27.9329 3.614C27.3569 3.29 26.6909 3.128 25.9349 3.128C25.1069 3.128 24.3689 3.314 23.7209 3.686C23.0729 4.058 22.5629 4.592 22.1909 5.288C21.8309 5.984 21.6509 6.794 21.6509 7.718C21.6509 8.642 21.8309 9.452 22.1909 10.148C22.5629 10.844 23.0729 11.384 23.7209 11.768C24.3689 12.14 25.1069 12.326 25.9349 12.326C26.6909 12.326 27.3569 12.164 27.9329 11.84C28.5089 11.516 28.9589 11.024 29.2829 10.364H31.7489C31.2809 11.564 30.5249 12.488 29.4809 13.136C28.4489 13.784 27.2669 14.108 25.9349 14.108C24.7589 14.108 23.6849 13.838 22.7129 13.298C21.7409 12.746 20.9669 11.984 20.3909 11.012C19.8269 10.04 19.5449 8.942 19.5449 7.718ZM43.0788 4.082L36.9948 18.662H34.8708L36.8868 13.838L32.9808 4.082H35.2668L38.0568 11.642L40.9548 4.082H43.0788ZM46.6793 5.558C47.0273 5.078 47.5013 4.688 48.1013 4.388C48.7133 4.076 49.3913 3.92 50.1353 3.92C51.0113 3.92 51.8033 4.13 52.5113 4.55C53.2193 4.97 53.7773 5.57 54.1853 6.35C54.5933 7.118 54.7973 8 54.7973 8.996C54.7973 9.992 54.5933 10.886 54.1853 11.678C53.7773 12.458 53.2133 13.07 52.4933 13.514C51.7853 13.946 50.9993 14.162 50.1353 14.162C49.3673 14.162 48.6833 14.012 48.0833 13.712C47.4953 13.412 47.0273 13.028 46.6793 12.56V14H44.6273V0.68H46.6793V5.558ZM52.7093 8.996C52.7093 8.312 52.5653 7.724 52.2773 7.232C52.0013 6.728 51.6293 6.35 51.1613 6.098C50.7053 5.834 50.2133 5.702 49.6853 5.702C49.1693 5.702 48.6773 5.834 48.2093 6.098C47.7533 6.362 47.3813 6.746 47.0933 7.25C46.8173 7.754 46.6793 8.348 46.6793 9.032C46.6793 9.716 46.8173 10.316 47.0933 10.832C47.3813 11.336 47.7533 11.72 48.2093 11.984C48.6773 12.248 49.1693 12.38 49.6853 12.38C50.2133 12.38 50.7053 12.248 51.1613 11.984C51.6293 11.708 52.0013 11.312 52.2773 10.796C52.5653 10.28 52.7093 9.68 52.7093 8.996ZM65.9166 8.798C65.9166 9.17 65.8926 9.506 65.8446 9.806H58.2666C58.3266 10.598 58.6206 11.234 59.1486 11.714C59.6766 12.194 60.3246 12.434 61.0926 12.434C62.1966 12.434 62.9766 11.972 63.4326 11.048H65.6466C65.3466 11.96 64.8006 12.71 64.0086 13.298C63.2286 13.874 62.2566 14.162 61.0926 14.162C60.1446 14.162 59.2926 13.952 58.5366 13.532C57.7926 13.1 57.2046 12.5 56.7726 11.732C56.3526 10.952 56.1426 10.052 56.1426 9.032C56.1426 8.012 56.3466 7.118 56.7546 6.35C57.1746 5.57 57.7566 4.97 58.5006 4.55C59.2566 4.13 60.1206 3.92 61.0926 3.92C62.0286 3.92 62.8626 4.124 63.5946 4.532C64.3266 4.94 64.8966 5.516 65.3046 6.26C65.7126 6.992 65.9166 7.838 65.9166 8.798ZM63.7746 8.15C63.7626 7.394 63.4926 6.788 62.9646 6.332C62.4366 5.876 61.7826 5.648 61.0026 5.648C60.2946 5.648 59.6886 5.876 59.1846 6.332C58.6806 6.776 58.3806 7.382 58.2846 8.15H63.7746ZM69.9879 5.522C70.2879 5.018 70.6839 4.628 71.1759 4.352C71.6799 4.064 72.2739 3.92 72.9579 3.92V6.044H72.4359C71.6319 6.044 71.0199 6.248 70.5999 6.656C70.1919 7.064 69.9879 7.772 69.9879 8.78V14H67.9359V4.082H69.9879V5.522ZM79.8481 3.92C80.6281 3.92 81.3241 4.082 81.9361 4.406C82.5601 4.73 83.0461 5.21 83.3941 5.846C83.7421 6.482 83.9161 7.25 83.9161 8.15V14H81.8821V8.456C81.8821 7.568 81.6601 6.89 81.2161 6.422C80.7721 5.942 80.1661 5.702 79.3981 5.702C78.6301 5.702 78.0181 5.942 77.5621 6.422C77.1181 6.89 76.8961 7.568 76.8961 8.456V14H74.8441V4.082H76.8961V5.216C77.2321 4.808 77.6581 4.49 78.1741 4.262C78.7021 4.034 79.2601 3.92 79.8481 3.92ZM85.8496 8.996C85.8496 8 86.0536 7.118 86.4616 6.35C86.8816 5.582 87.4456 4.988 88.1536 4.568C88.8736 4.136 89.6656 3.92 90.5296 3.92C91.3096 3.92 91.9876 4.076 92.5636 4.388C93.1516 4.688 93.6196 5.066 93.9676 5.522V4.082H96.0376V14H93.9676V12.524C93.6196 12.992 93.1456 13.382 92.5456 13.694C91.9456 14.006 91.2616 14.162 90.4936 14.162C89.6416 14.162 88.8616 13.946 88.1536 13.514C87.4456 13.07 86.8816 12.458 86.4616 11.678C86.0536 10.886 85.8496 9.992 85.8496 8.996ZM93.9676 9.032C93.9676 8.348 93.8236 7.754 93.5356 7.25C93.2596 6.746 92.8936 6.362 92.4376 6.098C91.9816 5.834 91.4896 5.702 90.9616 5.702C90.4336 5.702 89.9416 5.834 89.4856 6.098C89.0296 6.35 88.6576 6.728 88.3696 7.232C88.0936 7.724 87.9556 8.312 87.9556 8.996C87.9556 9.68 88.0936 10.28 88.3696 10.796C88.6576 11.312 89.0296 11.708 89.4856 11.984C89.9536 12.248 90.4456 12.38 90.9616 12.38C91.4896 12.38 91.9816 12.248 92.4376 11.984C92.8936 11.72 93.2596 11.336 93.5356 10.832C93.8236 10.316 93.9676 9.716 93.9676 9.032ZM101.127 5.756V11.246C101.127 11.618 101.211 11.888 101.379 12.056C101.559 12.212 101.859 12.29 102.279 12.29H103.539V14H101.919C100.995 14 100.287 13.784 99.7948 13.352C99.3028 12.92 99.0568 12.218 99.0568 11.246V5.756H97.8868V4.082H99.0568V1.616H101.127V4.082H103.539V5.756H101.127ZM114.52 8.798C114.52 9.17 114.496 9.506 114.448 9.806H106.87C106.93 10.598 107.224 11.234 107.752 11.714C108.28 12.194 108.928 12.434 109.696 12.434C110.8 12.434 111.58 11.972 112.036 11.048H114.25C113.95 11.96 113.404 12.71 112.612 13.298C111.832 13.874 110.86 14.162 109.696 14.162C108.748 14.162 107.896 13.952 107.14 13.532C106.396 13.1 105.808 12.5 105.376 11.732C104.956 10.952 104.746 10.052 104.746 9.032C104.746 8.012 104.95 7.118 105.358 6.35C105.778 5.57 106.36 4.97 107.104 4.55C107.86 4.13 108.724 3.92 109.696 3.92C110.632 3.92 111.466 4.124 112.198 4.532C112.93 4.94 113.5 5.516 113.908 6.26C114.316 6.992 114.52 7.838 114.52 8.798ZM112.378 8.15C112.366 7.394 112.096 6.788 111.568 6.332C111.04 5.876 110.386 5.648 109.606 5.648C108.898 5.648 108.292 5.876 107.788 6.332C107.284 6.776 106.984 7.382 106.888 8.15H112.378ZM122.079 11.21C123.231 10.214 124.137 9.398 124.797 8.762C125.469 8.114 126.027 7.442 126.471 6.746C126.915 6.05 127.137 5.354 127.137 4.658C127.137 3.938 126.963 3.374 126.615 2.966C126.279 2.558 125.745 2.354 125.013 2.354C124.305 2.354 123.753 2.582 123.357 3.038C122.973 3.482 122.769 4.082 122.745 4.838H120.765C120.801 3.47 121.209 2.426 121.989 1.706C122.781 0.974 123.783 0.608 124.995 0.608C126.303 0.608 127.323 0.968 128.055 1.688C128.799 2.408 129.171 3.368 129.171 4.568C129.171 5.432 128.949 6.266 128.505 7.07C128.073 7.862 127.551 8.576 126.939 9.212C126.339 9.836 125.571 10.562 124.635 11.39L123.825 12.11H129.531V13.82H120.783V12.326L122.079 11.21ZM131.334 7.268C131.334 5.192 131.682 3.572 132.378 2.408C133.086 1.232 134.298 0.643999 136.014 0.643999C137.73 0.643999 138.936 1.232 139.632 2.408C140.34 3.572 140.694 5.192 140.694 7.268C140.694 9.368 140.34 11.012 139.632 12.2C138.936 13.376 137.73 13.964 136.014 13.964C134.298 13.964 133.086 13.376 132.378 12.2C131.682 11.012 131.334 9.368 131.334 7.268ZM138.678 7.268C138.678 6.296 138.612 5.474 138.48 4.802C138.36 4.13 138.108 3.584 137.724 3.164C137.34 2.732 136.77 2.516 136.014 2.516C135.258 2.516 134.688 2.732 134.304 3.164C133.92 3.584 133.662 4.13 133.53 4.802C133.41 5.474 133.35 6.296 133.35 7.268C133.35 8.276 133.41 9.122 133.53 9.806C133.65 10.49 133.902 11.042 134.286 11.462C134.682 11.882 135.258 12.092 136.014 12.092C136.77 12.092 137.34 11.882 137.724 11.462C138.12 11.042 138.378 10.49 138.498 9.806C138.618 9.122 138.678 8.276 138.678 7.268ZM143.999 11.21C145.151 10.214 146.057 9.398 146.717 8.762C147.389 8.114 147.947 7.442 148.391 6.746C148.835 6.05 149.057 5.354 149.057 4.658C149.057 3.938 148.883 3.374 148.535 2.966C148.199 2.558 147.665 2.354 146.933 2.354C146.225 2.354 145.673 2.582 145.277 3.038C144.893 3.482 144.689 4.082 144.665 4.838H142.685C142.721 3.47 143.129 2.426 143.909 1.706C144.701 0.974 145.703 0.608 146.915 0.608C148.223 0.608 149.243 0.968 149.975 1.688C150.719 2.408 151.091 3.368 151.091 4.568C151.091 5.432 150.869 6.266 150.425 7.07C149.993 7.862 149.471 8.576 148.859 9.212C148.259 9.836 147.491 10.562 146.555 11.39L145.745 12.11H151.451V13.82H142.703V12.326L143.999 11.21ZM153.002 11.264V9.716L159.05 1.04H161.534V9.482H163.208V11.264H161.534V14H159.518V11.264H153.002ZM159.608 3.128L155.36 9.482H159.608V3.128Z" fill="black"/>
</svg>
