<svg width="36" height="30" viewBox="0 0 36 30" fill="none" xmlns="http://www.w3.org/2000/svg">
<path d="M26.0151 18.421L25.6651 15.621C25.3151 15.521 24.9276 15.3543 24.5026 15.121C24.0776 14.8877 23.7235 14.6377 23.4401 14.371L20.8651 15.471L19.2651 12.671L21.4901 10.996C21.4568 10.796 21.4276 10.5877 21.4026 10.371C21.3776 10.1543 21.3651 9.946 21.3651 9.746C21.3651 9.56266 21.3776 9.36683 21.4026 9.1585C21.4276 8.95016 21.4568 8.71266 21.4901 8.446L19.2651 6.771L20.8651 4.021L23.4151 5.096C23.7485 4.81266 24.111 4.5585 24.5026 4.3335C24.8943 4.1085 25.2735 3.93766 25.6401 3.821L26.0151 1.021H29.2151L29.5651 3.846C29.9985 3.996 30.3776 4.16683 30.7026 4.3585C31.0276 4.55016 31.3651 4.796 31.7151 5.096L34.3651 4.021L35.9651 6.771L33.6401 8.521C33.7068 8.75433 33.7443 8.96683 33.7526 9.1585C33.761 9.35016 33.7651 9.53766 33.7651 9.721C33.7651 9.88766 33.7568 10.0668 33.7401 10.2585C33.7235 10.4502 33.6901 10.6877 33.6401 10.971L35.9151 12.671L34.3151 15.471L31.7151 14.346C31.3651 14.646 31.0151 14.9002 30.6651 15.1085C30.3151 15.3168 29.9485 15.4793 29.5651 15.596L29.2151 18.421H26.0151ZM26.6151 17.721H28.5651L28.9401 14.996C29.4401 14.8627 29.886 14.6835 30.2776 14.4585C30.6693 14.2335 31.0818 13.9127 31.5151 13.496L34.0151 14.571L35.0151 12.871L32.8151 11.221C32.8985 10.921 32.9526 10.6543 32.9776 10.421C33.0026 10.1877 33.0151 9.95433 33.0151 9.721C33.0151 9.471 33.0026 9.23766 32.9776 9.021C32.9526 8.80433 32.8985 8.55433 32.8151 8.271L35.0651 6.571L34.0651 4.871L31.4901 5.946C31.2068 5.62933 30.811 5.321 30.3026 5.021C29.7943 4.721 29.3318 4.52933 28.9151 4.446L28.6151 1.721H26.6151L26.3151 4.421C25.8151 4.521 25.3568 4.68766 24.9401 4.921C24.5235 5.15433 24.0985 5.48766 23.6651 5.921L21.1651 4.871L20.1651 6.571L22.3401 8.196C22.2568 8.41266 22.1985 8.65433 22.1651 8.921C22.1318 9.18766 22.1151 9.46266 22.1151 9.746C22.1151 9.996 22.1318 10.246 22.1651 10.496C22.1985 10.746 22.2485 10.9877 22.3151 11.221L20.1651 12.871L21.1651 14.571L23.6401 13.521C24.0401 13.921 24.4485 14.2377 24.8651 14.471C25.2818 14.7043 25.7568 14.8877 26.2901 15.021L26.6151 17.721ZM27.5651 11.921C28.1818 11.921 28.7026 11.7085 29.1276 11.2835C29.5526 10.8585 29.7651 10.3377 29.7651 9.721C29.7651 9.10433 29.5526 8.5835 29.1276 8.1585C28.7026 7.7335 28.1818 7.521 27.5651 7.521C26.9485 7.521 26.4276 7.7335 26.0026 8.1585C25.5776 8.5835 25.3651 9.10433 25.3651 9.721C25.3651 10.3377 25.5776 10.8585 26.0026 11.2835C26.4276 11.7085 26.9485 11.921 27.5651 11.921Z" fill="#22346E"/>
<path d="M4.57662 15.1161H0.594434C0.412662 15.1161 0.265137 14.9686 0.265137 14.7868C0.265137 14.605 0.412662 14.4575 0.594434 14.4575H4.57629C4.75806 14.4575 4.90559 14.605 4.90559 14.7868C4.90559 14.9686 4.75839 15.1161 4.57662 15.1161Z" fill="#22346E"/>
<path d="M15.0312 4.66145C14.8494 4.66145 14.7019 4.51392 14.7019 4.33215V0.350293C14.7019 0.168521 14.8494 0.0209961 15.0312 0.0209961C15.213 0.0209961 15.3605 0.168521 15.3605 0.350293V4.33215C15.3605 4.51425 15.213 4.66145 15.0312 4.66145Z" fill="#22346E"/>
<path d="M7.63885 7.72368C7.55455 7.72368 7.47025 7.69141 7.40604 7.62719L4.59022 4.8117C4.46146 4.68295 4.46146 4.47483 4.59022 4.34608C4.71897 4.21732 4.92709 4.21732 5.05584 4.34608L7.87166 7.16157C8.00042 7.29032 8.00042 7.49844 7.87166 7.62719C7.80712 7.69141 7.72282 7.72368 7.63885 7.72368Z" fill="#22346E"/>
<path d="M15.0206 17.8968C14.4743 17.8968 13.9504 17.6818 13.5625 17.2939C13.136 16.8671 12.9187 16.276 12.9661 15.6721C13.0448 14.6756 13.8556 13.8649 14.852 13.7862C15.4559 13.7388 16.047 13.9558 16.4738 14.3826C16.9006 14.8093 17.1179 15.4004 17.0705 16.0043C16.9921 17.0008 16.1814 17.8115 15.1846 17.8906C15.1296 17.8945 15.0749 17.8968 15.0206 17.8968ZM15.0157 14.4385C14.9785 14.4385 14.9409 14.4399 14.9037 14.4432C14.2267 14.4965 13.6761 15.0471 13.6227 15.7241C13.5901 16.1357 13.738 16.5385 14.0278 16.8286C14.3179 17.1187 14.7186 17.2662 15.1322 17.2339C15.8093 17.1806 16.3602 16.6297 16.4132 15.953C16.4458 15.541 16.2976 15.1386 16.0078 14.8485C15.7444 14.5847 15.3878 14.4385 15.0157 14.4385Z" fill="#22346E"/>
<path d="M16.2901 24.1497H15.6315V19.8751C15.6315 19.5389 15.842 19.2399 16.1545 19.1319C16.2878 19.0858 16.4189 19.0315 16.5437 18.9706C16.8407 18.8253 17.1996 18.8872 17.4367 19.124L17.4957 19.1826L18.3631 18.3153L18.3048 18.257C18.0673 18.0195 18.0054 17.6606 18.1503 17.3639C18.2122 17.2375 18.2666 17.1067 18.312 16.9747C18.4203 16.6615 18.719 16.4514 19.0556 16.4514H19.1346V15.2248H19.0552C18.719 15.2248 18.4203 15.0147 18.312 14.7022C18.2662 14.5692 18.2119 14.4384 18.1503 14.3126C18.0054 14.0156 18.0673 13.6567 18.3048 13.4196L18.3631 13.3613L17.4957 12.4939L17.4371 12.5522C17.2 12.7897 16.8414 12.8512 16.544 12.7063C16.4179 12.6448 16.2872 12.5901 16.1545 12.5443C15.842 12.4366 15.6315 12.138 15.6315 11.8014V11.7221H14.4049V11.8014C14.4049 12.138 14.1948 12.4366 13.882 12.5447C13.7489 12.5908 13.6179 12.6451 13.4928 12.7063C13.1957 12.8516 12.8368 12.7897 12.5997 12.5526L12.5414 12.4943L11.6737 13.3616L11.732 13.4199C11.9694 13.6573 12.0313 14.016 11.8861 14.3126C11.8242 14.4394 11.7695 14.5705 11.7244 14.7019C11.6161 15.015 11.3177 15.2251 10.9812 15.2251H10.9018V16.4518H10.9812C11.3174 16.4518 11.6161 16.6619 11.7244 16.9744C11.7699 17.1057 11.8242 17.2371 11.8864 17.3646C12.0313 17.6609 11.9694 18.0199 11.7323 18.2573L11.674 18.3156L12.5417 19.183L12.5997 19.1247C12.8375 18.8876 13.1967 18.826 13.4928 18.9706C13.6179 19.0321 13.7489 19.0865 13.882 19.1322C14.1948 19.2402 14.4049 19.5389 14.4049 19.8755V24.1501H13.7463V19.8751C13.7463 19.8201 13.7137 19.7707 13.6669 19.7546C13.5082 19.6999 13.3521 19.6351 13.203 19.5616C13.1602 19.5409 13.1029 19.5521 13.065 19.5903L12.9033 19.7523C12.7031 19.9515 12.3787 19.9512 12.1798 19.7523L11.104 18.6768C10.9048 18.4769 10.9051 18.1526 11.104 17.9537L11.2664 17.7913C11.3042 17.7535 11.3158 17.6968 11.2944 17.6534C11.2203 17.5016 11.1557 17.3455 11.1017 17.1891C11.0856 17.143 11.0359 17.1104 10.9809 17.1104H10.7543C10.4724 17.1104 10.2429 16.8812 10.2429 16.599V15.0779C10.2429 14.7961 10.4724 14.5665 10.7543 14.5665H10.9809C11.0359 14.5665 11.0853 14.5339 11.1017 14.4872C11.1557 14.3304 11.2206 14.1743 11.294 14.0235C11.3151 13.9801 11.3036 13.9234 11.266 13.8856L11.1037 13.7232C10.9045 13.524 10.9045 13.1996 11.1034 13.0001L12.1795 11.9243C12.3787 11.7254 12.7028 11.725 12.9027 11.9239L13.0653 12.0869C13.1032 12.1248 13.1602 12.1363 13.2033 12.1146C13.3521 12.0418 13.5079 11.9769 13.6666 11.9223C13.7137 11.9061 13.7463 11.8564 13.7463 11.8014V11.5749C13.7463 11.293 13.9758 11.0635 14.2577 11.0635H15.7787C16.0606 11.0635 16.2901 11.293 16.2901 11.5749V11.8014C16.2901 11.8564 16.3227 11.9058 16.3695 11.922C16.5272 11.9766 16.683 12.0412 16.8328 12.1146C16.8769 12.1353 16.9332 12.1241 16.9711 12.0866L17.1335 11.9243C17.333 11.7247 17.6577 11.725 17.8566 11.9243L18.9324 12.9997C19.1316 13.1993 19.1313 13.5237 18.9324 13.7229L18.7701 13.8852C18.7322 13.9231 18.7207 13.9801 18.7417 14.0232C18.8152 14.1727 18.88 14.3288 18.9344 14.4872C18.9505 14.5336 18.9999 14.5662 19.0549 14.5662H19.2815C19.5633 14.5662 19.7929 14.7957 19.7929 15.0776V16.5986C19.7929 16.8805 19.5637 17.11 19.2815 17.11H19.0552C19.0002 17.11 18.9505 17.143 18.9344 17.1894C18.88 17.3468 18.8155 17.5025 18.7417 17.653C18.7207 17.6965 18.7322 17.7531 18.7701 17.791L18.9324 17.9534C19.1313 18.1523 19.1316 18.4766 18.9331 18.6758L17.8566 19.752C17.657 19.9515 17.3324 19.9509 17.1335 19.752L16.9711 19.5896C16.9332 19.5518 16.8759 19.5406 16.8331 19.5616C16.6843 19.6347 16.5282 19.6996 16.3695 19.7543C16.3227 19.7704 16.2901 19.8198 16.2901 19.8748V24.1497Z" fill="#22346E"/>
<path d="M21.2163 9.08201C19.4233 7.37131 17.0672 6.4911 14.5849 6.61031C10.1289 6.82007 6.4704 10.3225 6.07458 14.7578C5.79237 17.9213 7.14875 20.9311 9.70343 22.8084C10.5043 23.3969 10.9821 24.3815 10.9821 25.4421V27.8868C10.9821 28.8635 11.7767 29.6581 12.7534 29.6581H17.5812C18.5579 29.6581 19.3525 28.8635 19.3525 27.8868V25.2172C19.3525 24.2063 19.8382 23.2309 20.6845 22.5417C22.7907 20.8277 23.9985 18.2905 23.9985 15.5807C23.9985 13.1014 23.0103 10.7937 21.2163 9.08201ZM17.5812 28.9992H12.7534C12.1399 28.9992 11.6407 28.5 11.6407 27.8865V25.7711H18.6939V27.8865C18.6939 28.5 18.1947 28.9992 17.5812 28.9992ZM20.2689 22.0306C19.2968 22.8216 18.7321 23.9405 18.6998 25.1125H11.6219C11.531 23.9705 10.9775 22.9273 10.0933 22.2776C7.726 20.5376 6.46908 17.7481 6.73054 14.8161C7.09705 10.7071 10.4872 7.4622 14.6159 7.26791C14.7519 7.26133 14.8872 7.25837 15.0219 7.25837C17.1732 7.25837 19.1984 8.06679 20.7619 9.5585C22.4245 11.1447 23.3399 13.2835 23.3399 15.5804C23.3399 18.0909 22.2207 20.4421 20.2689 22.0306Z" fill="#22346E"/>
</svg>
