<svg width="41" height="41" viewBox="0 0 41 41" fill="none" xmlns="http://www.w3.org/2000/svg">
<path d="M24.6008 40.021H5.92943C2.80603 40.021 0.265137 37.9912 0.265137 35.4961V4.54589C0.265137 2.05077 2.80603 0.0209961 5.92943 0.0209961H24.6008C27.7237 0.0209961 30.2651 2.05077 30.2651 4.54589V35.4966C30.2651 37.9912 27.7242 40.021 24.6008 40.021ZM5.92943 1.79877C4.03336 1.79877 2.49057 3.03077 2.49057 4.54589V35.4966C2.49057 37.0112 4.0328 38.2437 5.92943 38.2437H24.6008C26.4969 38.2437 28.0397 37.0117 28.0397 35.4966V4.54589C28.0397 3.03077 26.4969 1.79877 24.6008 1.79877H5.92943Z" fill="#22346E"/>
<path d="M15.2672 36.7C16.264 36.7 17.0721 36.0545 17.0721 35.2582C17.0721 34.4619 16.264 33.8164 15.2672 33.8164C14.2705 33.8164 13.4624 34.4619 13.4624 35.2582C13.4624 36.0545 14.2705 36.7 15.2672 36.7Z" fill="#22346E"/>
<path d="M18.6746 5.32075H11.8559C11.2417 5.32075 10.7432 4.92252 10.7432 4.43186C10.7432 3.94119 11.2417 3.54297 11.8559 3.54297H18.6746C19.2888 3.54297 19.7873 3.94119 19.7873 4.43186C19.7873 4.92252 19.2888 5.32075 18.6746 5.32075Z" fill="#22346E"/>
<path d="M39.8194 5.021H35.6745C35.2774 5.021 35.0785 5.50099 35.3594 5.78188L36.6472 7.06965L29.1316 14.5851L26.4999 11.9534L25.7945 11.2481C25.5559 11.0094 25.169 11.0094 24.9303 11.2481L20.4441 15.734C20.2055 15.9727 20.2055 16.3596 20.4441 16.5982L21.1495 17.3036C21.3881 17.5422 21.775 17.5422 22.0137 17.3036L25.3623 13.9549L28.6943 17.2869C28.933 17.5256 29.3199 17.5256 29.5585 17.2869L29.9172 16.9282C29.9356 16.9136 29.955 16.9005 29.9721 16.8834L38.2165 8.63897L39.5043 9.92674C39.7851 10.2076 40.2651 10.0087 40.2651 9.61163V5.46677C40.2651 5.22055 40.0656 5.021 39.8194 5.021Z" fill="#22346E"/>
<path d="M34.8486 13.4208V24.4096C34.8486 24.7472 35.1222 25.0207 35.4597 25.0207H37.4113C37.7488 25.0207 38.0224 24.7472 38.0224 24.4096V10.2471L34.8486 13.4208Z" fill="#22346E"/>
<path d="M30.7351 17.5346V24.4097C30.7351 24.7472 31.0087 25.0208 31.3462 25.0208H33.2978C33.6353 25.0208 33.9089 24.7472 33.9089 24.4097V14.3608L30.7351 17.5346Z" fill="#22346E"/>
<path d="M29.1264 18.466C28.696 18.466 28.2916 18.2984 27.9871 17.994L26.6213 16.6284V24.4097C26.6213 24.7472 26.8949 25.0208 27.2324 25.0208H29.184C29.5215 25.0208 29.7951 24.7472 29.7951 24.4097V18.3195C29.5878 18.4144 29.3613 18.466 29.1264 18.466Z" fill="#22346E"/>
<path d="M25.3622 15.3691L22.7209 18.0105C22.6547 18.0767 22.5829 18.1353 22.5078 18.1882V24.4097C22.5078 24.7473 22.7814 25.0208 23.1189 25.0208H25.0705C25.408 25.0208 25.6816 24.7473 25.6816 24.4097V15.6885L25.3622 15.3691Z" fill="#22346E"/>
<path d="M15.2651 15.021C12.5037 15.021 10.2651 17.2596 10.2651 20.021C10.2651 22.7824 12.5037 25.021 15.2651 25.021C18.0266 25.021 20.2651 22.7824 20.2651 20.021C20.2651 17.2596 18.0266 15.021 15.2651 15.021ZM15.2651 24.2988C12.9026 24.2988 10.9874 22.3836 10.9874 20.021C10.9874 17.6584 12.9026 15.7432 15.2651 15.7432C17.6277 15.7432 19.5429 17.6584 19.5429 20.021C19.5429 22.3836 17.6277 24.2988 15.2651 24.2988Z" fill="#22346E"/>
<path d="M15.7908 19.6587H14.7394C14.6329 19.6587 14.5429 19.5687 14.5429 19.4621V18.6464C14.5429 18.5399 14.6329 18.4499 14.7394 18.4499H15.7908C15.8973 18.4499 15.9873 18.5399 15.9873 18.6464H16.654C16.654 18.1704 16.2668 17.7832 15.7908 17.7832H15.5984V17.1719H14.9318V17.7832H14.7394C14.2634 17.7832 13.8762 18.1704 13.8762 18.6464V19.4621C13.8762 19.9381 14.2634 20.3253 14.7394 20.3253L15.7908 20.3254C15.8973 20.3254 15.9873 20.4154 15.9873 20.522V21.3377C15.9873 21.4442 15.8973 21.5343 15.7908 21.5343H14.7394C14.6329 21.5343 14.5429 21.4442 14.5429 21.3377H13.8762C13.8762 21.8137 14.2634 22.201 14.7394 22.201H14.9318V22.8123H15.5984V22.201H15.7908C16.2667 22.201 16.654 21.8138 16.654 21.3377V20.522C16.654 20.0459 16.2668 19.6587 15.7908 19.6587Z" fill="#22346E"/>
</svg>
