<svg width="35" height="35" viewBox="0 0 35 35" fill="none" xmlns="http://www.w3.org/2000/svg">
<path d="M17.5 35C12.4323 33.9792 8.2487 31.6531 4.94922 28.0219C1.64974 24.3906 0 20.3583 0 15.925V5.25L17.5 0L35 5.25V15.925C35 20.3583 33.3503 24.3906 30.0508 28.0219C26.7513 31.6531 22.5677 33.9792 17.5 35ZM17.5 31.325C21.2917 30.3625 24.4271 28.4375 26.9062 25.55C29.3854 22.6625 30.625 19.4542 30.625 15.925V7.65625L17.5 3.71875L4.375 7.65625V15.925C4.375 19.4542 5.61458 22.6625 8.09375 25.55C10.5729 28.4375 13.7083 30.3625 17.5 31.325Z" fill="#22346E"/>
<path d="M13.4614 22.1665C13.0912 22.1665 12.7743 22.0359 12.5107 21.7748C12.247 21.5137 12.1152 21.1998 12.1152 20.8332V14.1665C12.1152 13.7998 12.247 13.4859 12.5107 13.2248C12.7743 12.9637 13.0912 12.8332 13.4614 12.8332H14.1345V11.4998C14.1345 10.5776 14.4626 9.7915 15.1188 9.1415C15.7751 8.4915 16.5688 8.1665 17.4999 8.1665C18.4309 8.1665 19.2246 8.4915 19.8809 9.1415C20.5371 9.7915 20.8652 10.5776 20.8652 11.4998V12.8332H21.5383C21.9085 12.8332 22.2254 12.9637 22.489 13.2248C22.7527 13.4859 22.8845 13.7998 22.8845 14.1665V20.8332C22.8845 21.1998 22.7527 21.5137 22.489 21.7748C22.2254 22.0359 21.9085 22.1665 21.5383 22.1665H13.4614ZM13.4614 20.8332H21.5383V14.1665H13.4614V20.8332ZM17.4999 18.8332C17.87 18.8332 18.1869 18.7026 18.4506 18.4415C18.7142 18.1804 18.846 17.8665 18.846 17.4998C18.846 17.1332 18.7142 16.8193 18.4506 16.5582C18.1869 16.2971 17.87 16.1665 17.4999 16.1665C17.1297 16.1665 16.8128 16.2971 16.5491 16.5582C16.2855 16.8193 16.1537 17.1332 16.1537 17.4998C16.1537 17.8665 16.2855 18.1804 16.5491 18.4415C16.8128 18.7026 17.1297 18.8332 17.4999 18.8332ZM15.4806 12.8332H19.5191V11.4998C19.5191 10.9443 19.3228 10.4721 18.9301 10.0832C18.5375 9.69428 18.0607 9.49984 17.4999 9.49984C16.939 9.49984 16.4622 9.69428 16.0696 10.0832C15.6769 10.4721 15.4806 10.9443 15.4806 11.4998V12.8332Z" fill="#22346E"/>
</svg>
