<svg width="41" height="31" viewBox="0 0 41 31" fill="none" xmlns="http://www.w3.org/2000/svg">
<path d="M31.6055 13.2521H25.9809C25.8526 13.2521 25.7488 13.1525 25.7488 13.0298C25.7488 12.9072 25.8526 12.8076 25.9809 12.8076H31.3151C31.5742 12.2654 31.7055 11.6912 31.7055 11.0992C31.7055 8.81984 29.7686 6.9654 27.3879 6.9654C27.2018 6.9654 27.0059 6.98029 26.7708 7.01251L26.5507 7.04273L26.5099 6.83362C26.1278 4.88162 24.3443 3.46495 22.2693 3.46495C20.1941 3.46495 18.4106 4.88162 18.0288 6.83362L17.9879 7.04295L17.7679 7.01273C17.5328 6.98051 17.3369 6.96562 17.1507 6.96562C14.77 6.96562 12.8331 8.82006 12.8331 11.0994C12.8331 11.6914 12.9642 12.2654 13.2233 12.8078H18.7086C18.8367 12.8078 18.9407 12.9074 18.9407 13.0301C18.9407 13.1527 18.8367 13.2523 18.7086 13.2523H12.9329L12.8689 13.1287C12.5372 12.4883 12.3689 11.8056 12.3689 11.0994C12.3689 8.57495 14.514 6.52117 17.1507 6.52117C17.2983 6.52117 17.4504 6.5294 17.6177 6.54673C18.1218 4.49117 20.0441 3.02051 22.2693 3.02051C24.4945 3.02051 26.4166 4.49117 26.9209 6.54673C27.0885 6.5294 27.2403 6.52117 27.3882 6.52117C30.0246 6.52117 32.17 8.57495 32.17 11.0994C32.17 11.8058 32.0017 12.4885 31.6698 13.1287L31.6055 13.2521Z" fill="#22346E"/>
<path d="M22.5013 19.7722V10.4898C22.5013 10.3671 22.3974 10.2676 22.2692 10.2676C22.1411 10.2676 22.0371 10.3671 22.0371 10.4898V19.7722C21.2067 19.8814 20.564 20.5634 20.564 21.3878C20.564 22.288 21.329 23.0205 22.2692 23.0205C23.2095 23.0205 23.9745 22.288 23.9745 21.3878C23.9743 20.5634 23.3318 19.8811 22.5013 19.7722ZM22.2692 22.576C21.585 22.576 21.0282 22.0431 21.0282 21.3878C21.0282 20.7325 21.5848 20.1996 22.2692 20.1996C22.9537 20.1996 23.5103 20.7325 23.5103 21.3878C23.5103 22.0431 22.9535 22.576 22.2692 22.576Z" fill="#22346E"/>
<path d="M30.5599 15.3534C29.6986 15.3534 28.9862 15.9685 28.8725 16.7638H24.7079V10.4898C24.7079 10.3671 24.6041 10.2676 24.4758 10.2676C24.3474 10.2676 24.2437 10.3671 24.2437 10.4898V17.208H28.8725C28.9865 18.0031 29.6988 18.6185 30.5599 18.6185C31.5002 18.6185 32.2652 17.886 32.2652 16.9858C32.2652 16.0856 31.5002 15.3534 30.5599 15.3534ZM30.5599 18.174C29.8757 18.174 29.3189 17.6411 29.3189 16.9858C29.3189 16.3305 29.8754 15.7976 30.5599 15.7976C31.2444 15.7976 31.801 16.3305 31.801 16.9858C31.801 17.6411 31.2444 18.174 30.5599 18.174Z" fill="#22346E"/>
<path d="M20.3029 10.4898C20.3029 10.3671 20.1989 10.2676 20.0708 10.2676C19.9427 10.2676 19.8387 10.3671 19.8387 10.4898V16.7636H15.6578C15.5441 15.9685 14.8318 15.3531 13.9704 15.3531C13.0302 15.3531 12.2651 16.0856 12.2651 16.9858C12.2651 17.886 13.0302 18.6185 13.9704 18.6185C14.8318 18.6185 15.5438 18.0034 15.6578 17.208H20.3029V10.4898ZM13.9704 18.174C13.2862 18.174 12.7293 17.6411 12.7293 16.9858C12.7293 16.3305 13.2859 15.7976 13.9704 15.7976C14.6547 15.7976 15.2112 16.3305 15.2112 16.9858C15.2112 17.6411 14.6544 18.174 13.9704 18.174Z" fill="#22346E"/>
<path d="M14.8391 9.97367C14.8047 9.97367 14.7699 9.96634 14.7369 9.95078C14.6218 9.89656 14.5745 9.76345 14.6311 9.65323C15.0603 8.81767 15.9307 8.29834 16.9027 8.29834C17.0137 8.29834 17.1283 8.30701 17.2641 8.32567C17.3908 8.34301 17.479 8.45567 17.4609 8.57723C17.4426 8.69856 17.3249 8.7819 17.1982 8.76567C17.0849 8.75012 16.9909 8.74278 16.9029 8.74278C16.1091 8.74278 15.3984 9.16678 15.048 9.84923C15.0071 9.92812 14.9247 9.97367 14.8391 9.97367Z" fill="#22346E"/>
<path d="M36.8296 1.54998C36.8958 1.54998 36.9496 1.61 36.9496 1.68392V24.5863H3.58023V1.68392C3.58023 1.61 3.634 1.54998 3.70023 1.54998H36.8296ZM36.8296 0.0205078H3.70067C2.87756 0.0205078 2.21045 0.76515 2.21045 1.68392V26.1152H38.3198V1.68392C38.3198 0.76515 37.6527 0.0205078 36.8296 0.0205078Z" fill="#22346E"/>
<path d="M39.5063 27.4766C39.5063 28.4142 38.8255 29.1737 37.9859 29.1737H2.54413C1.70413 29.1737 1.02368 28.4137 1.02368 27.4766" fill="#22346E"/>
<path d="M37.986 30.0206H2.54425C1.28736 30.0206 0.265137 28.879 0.265137 27.4761H1.78247C1.78247 27.9454 2.12425 28.3269 2.54425 28.3269H37.986C38.4065 28.3269 38.7482 27.9454 38.7482 27.4761H40.2651C40.2651 28.879 39.2425 30.0206 37.986 30.0206Z" fill="#22346E"/>
</svg>
