<svg width="62" height="39" viewBox="0 0 62 39" fill="none" xmlns="http://www.w3.org/2000/svg">
<path d="M9.26514 38.0205V36.0205H17.2651V28.9205C17.2651 26.9705 16.586 25.3163 15.2276 23.958C13.8693 22.5997 12.2151 21.9205 10.2651 21.9205C8.31514 21.9205 6.66097 22.5997 5.30264 23.958C3.9443 25.3163 3.26514 26.9705 3.26514 28.9205V35.0205H2.26514C1.71514 35.0205 1.2443 34.8247 0.852637 34.433C0.46097 34.0413 0.265137 33.5705 0.265137 33.0205V31.0205C0.265137 30.6705 0.352637 30.3413 0.527637 30.033C0.702637 29.7247 0.94847 29.4788 1.26514 29.2955L1.34014 27.9705C1.47347 26.8372 1.80264 25.7872 2.32764 24.8205C2.85264 23.8538 3.51097 23.0122 4.30264 22.2955C5.0943 21.5788 6.00264 21.0205 7.02764 20.6205C8.05264 20.2205 9.1318 20.0205 10.2651 20.0205C11.3985 20.0205 12.4735 20.2205 13.4901 20.6205C14.5068 21.0205 15.4151 21.5747 16.2151 22.283C17.0151 22.9913 17.6735 23.8288 18.1901 24.7955C18.7068 25.7622 19.0401 26.8122 19.1901 27.9455L19.2651 29.2455C19.5818 29.3955 19.8276 29.6205 20.0026 29.9205C20.1776 30.2205 20.2651 30.5372 20.2651 30.8705V33.1705C20.2651 33.5038 20.1776 33.8205 20.0026 34.1205C19.8276 34.4205 19.5818 34.6455 19.2651 34.7955V36.0205C19.2651 36.5705 19.0693 37.0413 18.6776 37.433C18.286 37.8247 17.8151 38.0205 17.2651 38.0205H9.26514ZM7.26514 31.0205C6.9818 31.0205 6.7443 30.9247 6.55264 30.733C6.36097 30.5413 6.26514 30.3038 6.26514 30.0205C6.26514 29.7372 6.36097 29.4997 6.55264 29.308C6.7443 29.1163 6.9818 29.0205 7.26514 29.0205C7.54847 29.0205 7.78597 29.1163 7.97764 29.308C8.1693 29.4997 8.26514 29.7372 8.26514 30.0205C8.26514 30.3038 8.1693 30.5413 7.97764 30.733C7.78597 30.9247 7.54847 31.0205 7.26514 31.0205ZM13.2651 31.0205C12.9818 31.0205 12.7443 30.9247 12.5526 30.733C12.361 30.5413 12.2651 30.3038 12.2651 30.0205C12.2651 29.7372 12.361 29.4997 12.5526 29.308C12.7443 29.1163 12.9818 29.0205 13.2651 29.0205C13.5485 29.0205 13.786 29.1163 13.9776 29.308C14.1693 29.4997 14.2651 29.7372 14.2651 30.0205C14.2651 30.3038 14.1693 30.5413 13.9776 30.733C13.786 30.9247 13.5485 31.0205 13.2651 31.0205ZM4.29014 29.4705C4.17347 27.7038 4.7068 26.1872 5.89014 24.9205C7.07347 23.6538 8.54847 23.0205 10.3151 23.0205C11.7985 23.0205 13.1026 23.4913 14.2276 24.433C15.3526 25.3747 16.0318 26.5788 16.2651 28.0455C14.7485 28.0288 13.3526 27.6205 12.0776 26.8205C10.8026 26.0205 9.82347 24.9372 9.14014 23.5705C8.87347 24.9038 8.31097 26.0913 7.45264 27.133C6.5943 28.1747 5.54014 28.9538 4.29014 29.4705Z" fill="#22346E"/>
<path d="M49.8296 11.55C49.8958 11.55 49.9496 11.61 49.9496 11.6839V34.5863H16.5802V11.6839C16.5802 11.61 16.634 11.55 16.7002 11.55H49.8296ZM49.8296 10.0205H16.7007C15.8776 10.0205 15.2104 10.7652 15.2104 11.6839V36.1152H51.3198V11.6839C51.3198 10.7652 50.6527 10.0205 49.8296 10.0205Z" fill="#22346E"/>
<path d="M53.1818 15.0205C52.0999 15.0205 51.0773 14.8236 50.1141 14.4299C49.1509 14.0361 48.3098 13.4986 47.5907 12.8174C46.8716 12.1361 46.3042 11.3393 45.8886 10.4268C45.4729 9.51426 45.2651 8.54551 45.2651 7.52051C45.2651 6.48301 45.4729 5.51113 45.8886 4.60488C46.3042 3.69863 46.8716 2.90488 47.5907 2.22363C48.3098 1.54238 49.1509 1.00488 50.1141 0.611133C51.0773 0.217383 52.0999 0.0205078 53.1818 0.0205078C54.2769 0.0205078 55.3028 0.217383 56.2594 0.611133C57.216 1.00488 58.0539 1.54238 58.7729 2.22363C59.492 2.90488 60.0594 3.69863 60.475 4.60488C60.8907 5.51113 61.0985 6.48301 61.0985 7.52051C61.0985 8.54551 60.8907 9.51426 60.475 10.4268C60.0594 11.3393 59.492 12.1361 58.7729 12.8174C58.0539 13.4986 57.216 14.0361 56.2594 14.4299C55.3028 14.8236 54.2769 15.0205 53.1818 15.0205ZM53.1818 13.483C53.5249 13.033 53.8217 12.5643 54.0724 12.0768C54.3231 11.5893 54.5276 11.0705 54.686 10.5205H51.6776C51.836 11.0705 52.0405 11.5893 52.2912 12.0768C52.5419 12.5643 52.8387 13.033 53.1818 13.483ZM51.1235 13.183C50.886 12.7705 50.6782 12.3424 50.5 11.8986C50.3219 11.4549 50.1735 10.9955 50.0547 10.5205H47.7193C48.1019 11.1455 48.5802 11.6893 49.1542 12.1518C49.7282 12.6143 50.3846 12.958 51.1235 13.183ZM55.2401 13.183C55.979 12.958 56.6354 12.6143 57.2094 12.1518C57.7834 11.6893 58.2617 11.1455 58.6443 10.5205H56.3089C56.1901 10.9955 56.0417 11.4549 55.8636 11.8986C55.6854 12.3424 55.4776 12.7705 55.2401 13.183ZM47.0464 9.02051H49.7381C49.6985 8.77051 49.6688 8.52363 49.649 8.27988C49.6292 8.03613 49.6193 7.78301 49.6193 7.52051C49.6193 7.25801 49.6292 7.00488 49.649 6.76113C49.6688 6.51738 49.6985 6.27051 49.7381 6.02051H47.0464C46.9804 6.27051 46.9309 6.51738 46.8979 6.76113C46.865 7.00488 46.8485 7.25801 46.8485 7.52051C46.8485 7.78301 46.865 8.03613 46.8979 8.27988C46.9309 8.52363 46.9804 8.77051 47.0464 9.02051ZM51.3214 9.02051H55.0422C55.0818 8.77051 55.1115 8.52363 55.1313 8.27988C55.1511 8.03613 55.161 7.78301 55.161 7.52051C55.161 7.25801 55.1511 7.00488 55.1313 6.76113C55.1115 6.51738 55.0818 6.27051 55.0422 6.02051H51.3214C51.2818 6.27051 51.2521 6.51738 51.2323 6.76113C51.2125 7.00488 51.2026 7.25801 51.2026 7.52051C51.2026 7.78301 51.2125 8.03613 51.2323 8.27988C51.2521 8.52363 51.2818 8.77051 51.3214 9.02051ZM56.6256 9.02051H59.3172C59.3832 8.77051 59.4327 8.52363 59.4657 8.27988C59.4986 8.03613 59.5151 7.78301 59.5151 7.52051C59.5151 7.25801 59.4986 7.00488 59.4657 6.76113C59.4327 6.51738 59.3832 6.27051 59.3172 6.02051H56.6256C56.6651 6.27051 56.6948 6.51738 56.7146 6.76113C56.7344 7.00488 56.7443 7.25801 56.7443 7.52051C56.7443 7.78301 56.7344 8.03613 56.7146 8.27988C56.6948 8.52363 56.6651 8.77051 56.6256 9.02051ZM56.3089 4.52051H58.6443C58.2617 3.89551 57.7834 3.35176 57.2094 2.88926C56.6354 2.42676 55.979 2.08301 55.2401 1.85801C55.4776 2.27051 55.6854 2.69863 55.8636 3.14238C56.0417 3.58613 56.1901 4.04551 56.3089 4.52051ZM51.6776 4.52051H54.686C54.5276 3.97051 54.3231 3.45176 54.0724 2.96426C53.8217 2.47676 53.5249 2.00801 53.1818 1.55801C52.8387 2.00801 52.5419 2.47676 52.2912 2.96426C52.0405 3.45176 51.836 3.97051 51.6776 4.52051ZM47.7193 4.52051H50.0547C50.1735 4.04551 50.3219 3.58613 50.5 3.14238C50.6782 2.69863 50.886 2.27051 51.1235 1.85801C50.3846 2.08301 49.7282 2.42676 49.1542 2.88926C48.5802 3.35176 48.1019 3.89551 47.7193 4.52051Z" fill="#22346E"/>
<path d="M18.2651 27.0205V26.4661H33.2651V27.0205H18.2651ZM18.2651 23.2977V22.7433H33.2651V23.2977H18.2651ZM18.2651 19.575V19.0205H33.2651V19.575H18.2651Z" fill="#22346E"/>
<path d="M43.2824 25.6958L43.6847 25.3222L40.5467 22.4081V18.7849H39.9835V22.6326L43.2824 25.6958ZM40.2686 29.0205C39.3008 29.0205 38.3907 28.85 37.5384 28.5089C36.686 28.1678 35.9446 27.7049 35.3142 27.1202C34.6837 26.5354 34.1846 25.8479 33.8169 25.0576C33.4491 24.2671 33.2651 23.4225 33.2651 22.5237C33.2651 21.625 33.4488 20.78 33.8161 19.9885C34.1834 19.197 34.6819 18.5086 35.3116 17.9233C35.9414 17.3378 36.6818 16.8743 37.5329 16.5328C38.3842 16.1913 39.2938 16.0205 40.2617 16.0205C41.2295 16.0205 42.1396 16.191 42.9919 16.5321C43.8443 16.8732 44.5856 17.3361 45.216 17.9208C45.8466 18.5056 46.3457 19.1931 46.7134 19.9835C47.0812 20.7739 47.2651 21.6185 47.2651 22.5173C47.2651 23.416 47.0815 24.2611 46.7142 25.0525C46.3469 25.844 45.8484 26.5324 45.2186 27.1178C44.5889 27.7033 43.8485 28.1667 42.9973 28.5082C42.1461 28.8497 41.2365 29.0205 40.2686 29.0205ZM40.2651 28.4975C42.0487 28.4975 43.5673 27.9154 44.8212 26.7511C46.075 25.5868 46.7019 24.1766 46.7019 22.5205C46.7019 20.8644 46.075 19.4542 44.8212 18.2899C43.5673 17.1256 42.0487 16.5435 40.2651 16.5435C38.4816 16.5435 36.9629 17.1256 35.7091 18.2899C34.4553 19.4542 33.8284 20.8644 33.8284 22.5205C33.8284 24.1766 34.4553 25.5868 35.7091 26.7511C36.9629 27.9154 38.4816 28.4975 40.2651 28.4975Z" fill="#22346E"/>
</svg>
