<svg width="41" height="41" viewBox="0 0 41 41" fill="none" xmlns="http://www.w3.org/2000/svg">
<path d="M27.2598 18.4534C27.1976 18.4534 27.1358 18.4378 27.0772 18.4059C26.9181 18.3183 26.8154 18.1253 26.8154 17.9128V14.7813H24.8056C23.9434 14.7813 23.2412 13.9277 23.2412 12.8788V1.92306C23.2412 0.874194 23.943 0.0205078 24.8056 0.0205078H38.701C39.5633 0.0205078 40.265 0.874194 40.265 1.92306V12.8788C40.265 13.9277 39.5637 14.7813 38.701 14.7813H30.8509L27.5536 18.3183C27.4709 18.4069 27.3665 18.4534 27.2598 18.4534ZM24.8056 1.10181C24.4332 1.10181 24.1301 1.47053 24.1301 1.92306V12.8788C24.1301 13.3313 24.4332 13.7 24.8056 13.7H27.2598C27.5056 13.7 27.7043 13.9422 27.7043 14.2407V16.7152L30.3891 13.8352C30.4705 13.7482 30.5749 13.7 30.6829 13.7H38.7006C39.0726 13.7 39.3757 13.3319 39.3757 12.8788V1.92306C39.3757 1.47053 39.0726 1.10181 38.7006 1.10181H24.8056Z" fill="#22346E"/>
<path d="M21.5111 40.0202H6.62145C4.66502 40.0202 3.07349 38.0841 3.07349 35.7042V22.6783C3.07349 20.2984 4.66547 18.3623 6.62145 18.3623H21.5106C23.467 18.3623 25.0586 20.2989 25.0586 22.6783V35.7042C25.059 38.0841 23.4675 40.0202 21.5111 40.0202ZM6.62145 19.4436C5.15524 19.4436 3.96237 20.8953 3.96237 22.6783V35.7042C3.96237 37.4878 5.15524 38.9389 6.62145 38.9389H21.5106C22.9768 38.9389 24.1697 37.4873 24.1697 35.7042V22.6783C24.1697 20.8947 22.9764 19.4436 21.5106 19.4436H6.62145Z" fill="#22346E"/>
<path d="M10.4747 28.0639C10.2294 28.0639 10.0303 27.8222 10.0303 27.5233V24.9C10.0303 24.601 10.2294 24.3594 10.4747 24.3594C10.72 24.3594 10.9192 24.601 10.9192 24.9V27.5233C10.9192 27.8222 10.72 28.0639 10.4747 28.0639Z" fill="#22346E"/>
<path d="M17.6573 28.0639C17.412 28.0639 17.2129 27.8222 17.2129 27.5233V24.9C17.2129 24.601 17.412 24.3594 17.6573 24.3594C17.9027 24.3594 18.1018 24.601 18.1018 24.9V27.5233C18.1018 27.8222 17.9031 28.0639 17.6573 28.0639Z" fill="#22346E"/>
<path d="M14.0664 34.5308C12.7775 34.5308 11.4882 33.9453 10.2082 32.7753C10.0117 32.5958 9.97218 32.2568 10.1197 32.0184C10.2673 31.7794 10.546 31.7324 10.742 31.9108C12.9797 33.9566 15.1543 33.9566 17.3903 31.9108C17.5872 31.7329 17.8654 31.78 18.0125 32.0184C18.1601 32.2568 18.1205 32.5958 17.9245 32.7753C16.6446 33.9453 15.3557 34.5308 14.0664 34.5308Z" fill="#22346E"/>
<path d="M14.0663 19.4435C13.8209 19.4435 13.6218 19.2013 13.6218 18.9028V13.7321C13.6218 13.4336 13.8209 13.1914 14.0663 13.1914C14.3116 13.1914 14.5107 13.4336 14.5107 13.7321V18.9028C14.5107 19.2013 14.3116 19.4435 14.0663 19.4435Z" fill="#22346E"/>
<path d="M27.4226 32.8838H24.6146C24.3688 32.8838 24.1702 32.6421 24.1702 32.3432V25.8375C24.1702 25.5385 24.3688 25.2969 24.6146 25.2969H27.4226C27.6683 25.2969 27.867 25.5385 27.867 25.8375V32.3432C27.867 32.6421 27.6683 32.8838 27.4226 32.8838ZM25.059 31.8025H26.9781V26.3782H25.059V31.8025Z" fill="#22346E"/>
<path d="M3.51799 32.8838H0.709576C0.464246 32.8838 0.265137 32.6421 0.265137 32.3432V25.8375C0.265137 25.5385 0.464246 25.2969 0.709576 25.2969H3.51799C3.76332 25.2969 3.96243 25.5385 3.96243 25.8375V32.3432C3.96243 32.6421 3.76332 32.8838 3.51799 32.8838ZM1.15402 31.8025H3.07355V26.3782H1.15402V31.8025Z" fill="#22346E"/>
<path d="M28.5127 8.0686H27.1549C26.9091 8.0686 26.7104 7.82639 26.7104 7.52795C26.7104 7.22952 26.9091 6.9873 27.1549 6.9873H28.5127C28.7584 6.9873 28.9571 7.22952 28.9571 7.52795C28.9571 7.82639 28.758 8.0686 28.5127 8.0686Z" fill="#22346E"/>
<path d="M32.5537 8.0686H31.1959C30.9501 8.0686 30.7515 7.82639 30.7515 7.52795C30.7515 7.22952 30.9501 6.9873 31.1959 6.9873H32.5537C32.7994 6.9873 32.9981 7.22952 32.9981 7.52795C32.9981 7.82639 32.7994 8.0686 32.5537 8.0686Z" fill="#22346E"/>
<path d="M36.5947 8.0686H35.2369C34.9911 8.0686 34.7925 7.82639 34.7925 7.52795C34.7925 7.22952 34.9911 6.9873 35.2369 6.9873H36.5947C36.8405 6.9873 37.0391 7.22952 37.0391 7.52795C37.0391 7.82639 36.8405 8.0686 36.5947 8.0686Z" fill="#22346E"/>
</svg>
