<svg width="47" height="41" viewBox="0 0 47 41" fill="none" xmlns="http://www.w3.org/2000/svg">
<path d="M40.6008 40.041H21.9294C18.806 40.041 16.2651 38.0112 16.2651 35.5161V4.5659C16.2651 2.07079 18.806 0.0410156 21.9294 0.0410156H40.6008C43.7237 0.0410156 46.2651 2.07079 46.2651 4.5659V35.5166C46.2651 38.0112 43.7242 40.041 40.6008 40.041ZM21.9294 1.81879C20.0334 1.81879 18.4906 3.05079 18.4906 4.5659V35.5166C18.4906 37.0312 20.0328 38.2637 21.9294 38.2637H40.6008C42.4969 38.2637 44.0397 37.0317 44.0397 35.5166V4.5659C44.0397 3.05079 42.4969 1.81879 40.6008 1.81879H21.9294Z" fill="#22346E"/>
<path d="M31.2672 36.7205C32.264 36.7205 33.0721 36.075 33.0721 35.2787C33.0721 34.4824 32.264 33.8369 31.2672 33.8369C30.2705 33.8369 29.4624 34.4824 29.4624 35.2787C29.4624 36.075 30.2705 36.7205 31.2672 36.7205Z" fill="#22346E"/>
<path d="M34.6746 5.34125H27.8559C27.2417 5.34125 26.7432 4.94303 26.7432 4.45237C26.7432 3.9617 27.2417 3.56348 27.8559 3.56348H34.6746C35.2888 3.56348 35.7873 3.9617 35.7873 4.45237C35.7873 4.94303 35.2888 5.34125 34.6746 5.34125Z" fill="#22346E"/>
<path d="M22.7271 14.823H10.1565C9.84439 14.823 9.59106 14.6282 9.59106 14.3881V8.58329C9.59106 8.34325 9.84439 8.14844 10.1565 8.14844C10.4686 8.14844 10.722 8.34325 10.722 8.58329V13.9528H22.7271C23.0392 13.9528 23.2925 14.1477 23.2925 14.3877C23.2925 14.6277 23.0398 14.823 22.7271 14.823Z" fill="#22346E"/>
<path d="M8.14651 28.782C7.83438 28.782 7.58105 28.5877 7.58105 28.3472V24.9632C7.58105 24.7227 7.83438 24.5283 8.14651 24.5283H23.1621C23.4742 24.5283 23.7275 24.7227 23.7275 24.9632C23.7275 25.2036 23.4742 25.398 23.1621 25.398H8.71196V28.3468C8.71196 28.5872 8.45863 28.782 8.14651 28.782Z" fill="#22346E"/>
<path d="M25.991 20.315H6.1719C5.85977 20.315 5.60645 20.1202 5.60645 19.8802C5.60645 19.6401 5.85977 19.4453 6.1719 19.4453H25.991C26.3036 19.4453 26.5564 19.6401 26.5564 19.8802C26.557 20.1202 26.3036 20.315 25.991 20.315Z" fill="#22346E"/>
<path d="M10.1565 9.01833C8.37192 9.01833 6.92041 7.90163 6.92041 6.52967C6.92041 5.15772 8.37249 4.04102 10.1565 4.04102C11.9405 4.04102 13.3926 5.15772 13.3926 6.52967C13.3926 7.90163 11.9411 9.01833 10.1565 9.01833ZM10.1565 4.91072C8.99562 4.91072 8.05131 5.63692 8.05131 6.52967C8.05131 7.42242 8.99562 8.14862 10.1565 8.14862C11.3174 8.14862 12.2617 7.42242 12.2617 6.52967C12.2617 5.63692 11.3174 4.91072 10.1565 4.91072Z" fill="#22346E"/>
<path d="M29.5012 22.0188C27.7166 22.0188 26.2651 20.9021 26.2651 19.5301C26.2651 18.1577 27.7166 17.041 29.5012 17.041C31.2858 17.041 32.7373 18.1577 32.7373 19.5301C32.7373 20.9021 31.2858 22.0188 29.5012 22.0188ZM29.5012 17.9107C28.3409 17.9107 27.396 18.6369 27.396 19.5297C27.396 20.4224 28.3403 21.1486 29.5012 21.1486C30.6621 21.1486 31.6064 20.4224 31.6064 19.5297C31.6064 18.6369 30.6615 17.9107 29.5012 17.9107Z" fill="#22346E"/>
<path d="M3.50121 22.3693C1.71665 22.3693 0.265137 21.2526 0.265137 19.8803C0.265137 18.5079 1.71722 17.3916 3.50121 17.3916C5.28578 17.3916 6.73786 18.5083 6.73786 19.8803C6.73786 21.2526 5.28578 22.3693 3.50121 22.3693ZM3.50121 18.2617C2.34034 18.2617 1.39604 18.9879 1.39604 19.8807C1.39604 20.7734 2.34034 21.4996 3.50121 21.4996C4.66208 21.4996 5.60639 20.7734 5.60639 19.8807C5.60639 18.9879 4.66208 18.2617 3.50121 18.2617Z" fill="#22346E"/>
<path d="M8.14648 32.8899C6.36191 32.8899 4.9104 31.7732 4.9104 30.4008C4.9104 29.0284 6.36248 27.9121 8.14648 27.9121C9.93047 27.9121 11.3826 29.0284 11.3826 30.4008C11.3826 31.7732 9.93047 32.8899 8.14648 32.8899ZM8.14648 28.7818C6.98561 28.7818 6.0413 29.508 6.0413 30.4008C6.0413 31.2935 6.98561 32.0202 8.14648 32.0202C9.30735 32.0202 10.2517 31.294 10.2517 30.4008C10.2511 29.508 9.30678 28.7818 8.14648 28.7818Z" fill="#22346E"/>
<path d="M23.2651 15.041L23.2651 24.041" stroke="#22346E" stroke-linecap="round"/>
</svg>
