<svg width="30" height="31" viewBox="0 0 30 31" fill="none" xmlns="http://www.w3.org/2000/svg">
<path d="M4.31637 15.6301H0.33418C0.152408 15.6301 0.00488281 15.4826 0.00488281 15.3008C0.00488281 15.1191 0.152408 14.9715 0.33418 14.9715H4.31604C4.49781 14.9715 4.64533 15.1191 4.64533 15.3008C4.64533 15.4826 4.49814 15.6301 4.31637 15.6301Z" fill="#22346E"/>
<path d="M29.2076 15.6301H25.2254C25.0433 15.6301 24.8961 15.4826 24.8961 15.3008C24.8961 15.1191 25.0433 14.9715 25.2254 14.9715H29.2076C29.3897 14.9715 29.5369 15.1191 29.5369 15.3008C29.5369 15.4826 29.3894 15.6301 29.2076 15.6301Z" fill="#22346E"/>
<path d="M22.1632 8.23774C22.0789 8.23774 21.9946 8.20547 21.9304 8.14125C21.8017 8.0125 21.8017 7.80438 21.9304 7.67563L24.7462 4.86014C24.875 4.73138 25.0831 4.73138 25.2119 4.86014C25.3406 4.98889 25.3406 5.19701 25.2119 5.32576L22.3961 8.14125C22.3318 8.20547 22.2475 8.23774 22.1632 8.23774Z" fill="#22346E"/>
<path d="M14.7709 5.17561C14.5891 5.17561 14.4416 5.02808 14.4416 4.84631V0.864453C14.4416 0.682681 14.5891 0.535156 14.7709 0.535156C14.9527 0.535156 15.1002 0.682681 15.1002 0.864453V4.84631C15.1002 5.02841 14.9527 5.17561 14.7709 5.17561Z" fill="#22346E"/>
<path d="M7.37847 8.23774C7.29417 8.23774 7.20987 8.20547 7.14566 8.14125L4.32984 5.32576C4.20109 5.19701 4.20109 4.98889 4.32984 4.86014C4.4586 4.73138 4.66671 4.73138 4.79547 4.86014L7.61129 7.67563C7.74004 7.80438 7.74004 8.0125 7.61129 8.14125C7.54674 8.20547 7.46244 8.23774 7.37847 8.23774Z" fill="#22346E"/>
<path d="M14.7604 18.411C14.2141 18.411 13.6901 18.196 13.3022 17.8081C12.8758 17.3813 12.6585 16.7902 12.7059 16.1863C12.7846 15.1899 13.5953 14.3791 14.5918 14.3004C15.1957 14.253 15.7868 14.47 16.2135 14.8968C16.6403 15.3235 16.8576 15.9146 16.8102 16.5186C16.7319 17.515 15.9211 18.3257 14.9243 18.4048C14.8694 18.4087 14.8147 18.411 14.7604 18.411ZM14.7554 14.9528C14.7182 14.9528 14.6807 14.9541 14.6435 14.9574C13.9664 15.0107 13.4158 15.5613 13.3625 16.2383C13.3299 16.65 13.4777 17.0527 13.7675 17.3428C14.0576 17.6329 14.4584 17.7804 14.872 17.7482C15.549 17.6948 16.0999 17.1439 16.153 16.4672C16.1856 16.0552 16.0374 15.6528 15.7476 15.3627C15.4842 15.099 15.1275 14.9528 14.7554 14.9528Z" fill="#22346E"/>
<path d="M16.0298 24.6641H15.3712V20.3895C15.3712 20.0532 15.5816 19.7542 15.8941 19.6462C16.0275 19.6001 16.1586 19.5458 16.2834 19.4849C16.5804 19.3397 16.9393 19.4016 17.1764 19.6383L17.2354 19.6969L18.1027 18.8296L18.0445 18.7713C17.807 18.5339 17.7451 18.1749 17.89 17.8782C17.9519 17.7518 18.0063 17.6211 18.0517 17.489C18.16 17.1758 18.4587 16.9658 18.7952 16.9658H18.8743V15.7391H18.7949C18.4587 15.7391 18.16 15.529 18.0517 15.2165C18.0059 15.0835 17.9516 14.9528 17.89 14.827C17.7451 14.5299 17.807 14.171 18.0445 13.9339L18.1027 13.8756L17.2354 13.0083L17.1768 13.0665C16.9397 13.304 16.5811 13.3655 16.2837 13.2207C16.1576 13.1591 16.0268 13.1044 15.8941 13.0586C15.5816 12.951 15.3712 12.6523 15.3712 12.3158V12.2364H14.1446V12.3158C14.1446 12.6523 13.9345 12.951 13.6217 13.059C13.4886 13.1051 13.3576 13.1594 13.2324 13.2207C12.9354 13.3659 12.5765 13.304 12.3394 13.0669L12.2811 13.0086L11.4134 13.876L11.4717 13.9342C11.7091 14.1717 11.771 14.5303 11.6258 14.827C11.5639 14.9537 11.5092 15.0848 11.4641 15.2162C11.3558 15.5294 11.0574 15.7395 10.7209 15.7395H10.6415V16.9661H10.7209C11.0571 16.9661 11.3558 17.1762 11.4641 17.4887C11.5096 17.6201 11.5639 17.7515 11.6261 17.8789C11.771 18.1753 11.7091 18.5342 11.472 18.7716L11.4137 18.8299L12.2814 19.6973L12.3394 19.639C12.5771 19.4019 12.9364 19.3403 13.2324 19.4849C13.3576 19.5465 13.4886 19.6008 13.6217 19.6466C13.9345 19.7546 14.1446 20.0532 14.1446 20.3898V24.6644H13.486V20.3895C13.486 20.3345 13.4534 20.2851 13.4066 20.2689C13.2479 20.2143 13.0918 20.1494 12.9427 20.076C12.8998 20.0552 12.8425 20.0664 12.8047 20.1046L12.643 20.2666C12.4428 20.4658 12.1184 20.4655 11.9195 20.2666L10.8437 19.1911C10.6445 18.9913 10.6448 18.6669 10.8437 18.468L11.0061 18.3057C11.0439 18.2678 11.0555 18.2112 11.0341 18.1677C10.96 18.0159 10.8954 17.8598 10.8414 17.7034C10.8253 17.6573 10.7756 17.6247 10.7206 17.6247H10.494C10.2121 17.6247 9.9826 17.3955 9.9826 17.1133V15.5923C9.9826 15.3104 10.2121 15.0809 10.494 15.0809H10.7206C10.7756 15.0809 10.8249 15.0483 10.8414 15.0015C10.8954 14.8448 10.9603 14.6887 11.0337 14.5378C11.0548 14.4944 11.0433 14.4377 11.0057 14.3999L10.8434 14.2375C10.6442 14.0383 10.6442 13.7139 10.8431 13.5144L11.9192 12.4386C12.1184 12.2397 12.4425 12.2394 12.6423 12.4382L12.805 12.6013C12.8429 12.6391 12.8998 12.6506 12.943 12.6289C13.0918 12.5561 13.2476 12.4913 13.4063 12.4366C13.4534 12.4205 13.486 12.3707 13.486 12.3158V12.0892C13.486 11.8073 13.7155 11.5778 13.9974 11.5778H15.5184C15.8003 11.5778 16.0298 11.8073 16.0298 12.0892V12.3158C16.0298 12.3707 16.0624 12.4201 16.1092 12.4363C16.2669 12.4909 16.4227 12.5555 16.5725 12.6289C16.6166 12.6497 16.6729 12.6385 16.7108 12.6009L16.8731 12.4386C17.0727 12.239 17.3974 12.2394 17.5963 12.4386L18.6721 13.5141C18.8713 13.7136 18.871 14.038 18.6721 14.2372L18.5097 14.3995C18.4719 14.4374 18.4604 14.4944 18.4814 14.5375C18.5549 14.687 18.6197 14.8431 18.6741 15.0015C18.6902 15.0479 18.7396 15.0805 18.7946 15.0805H19.0211C19.303 15.0805 19.5325 15.31 19.5325 15.5919V17.1129C19.5325 17.3948 19.3034 17.6243 19.0211 17.6243H18.7949C18.7399 17.6243 18.6902 17.6573 18.6741 17.7037C18.6197 17.8611 18.5552 18.0169 18.4814 18.1674C18.4604 18.2108 18.4719 18.2675 18.5097 18.3053L18.6721 18.4677C18.871 18.6666 18.8713 18.9909 18.6727 19.1902L17.5963 20.2663C17.3967 20.4658 17.072 20.4652 16.8731 20.2663L16.7108 20.104C16.6729 20.0661 16.6156 20.0549 16.5728 20.076C16.424 20.1491 16.2679 20.2139 16.1092 20.2686C16.0624 20.2847 16.0298 20.3341 16.0298 20.3891V24.6641Z" fill="#22346E"/>
<path d="M20.9561 9.59609C19.163 7.88539 16.8069 7.00518 14.3247 7.12439C9.86863 7.33415 6.21014 10.8365 5.81433 15.2718C5.53212 18.4354 6.88849 21.4452 9.44318 23.3225C10.244 23.9109 10.7218 24.8955 10.7218 25.9562V28.4009C10.7218 29.3776 11.5164 30.1722 12.4931 30.1722H17.3209C18.2976 30.1722 19.0922 29.3776 19.0922 28.4009V25.7313C19.0922 24.7204 19.5779 23.745 20.4242 23.0558C22.5304 21.3418 23.7383 18.8045 23.7383 16.0948C23.7383 13.6155 22.7501 11.3078 20.9561 9.59609ZM17.3209 29.5133H12.4931C11.8796 29.5133 11.3804 29.0141 11.3804 28.4006V26.2852H18.4336V28.4006C18.4336 29.0141 17.9344 29.5133 17.3209 29.5133ZM20.0087 22.5447C19.0366 23.3357 18.4718 24.4546 18.4396 25.6266H11.3617C11.2708 24.4846 10.7172 23.4414 9.83307 22.7917C7.46575 21.0517 6.20882 18.2622 6.47029 15.3301C6.83679 11.2212 10.2269 7.97628 14.3556 7.78199C14.4916 7.77541 14.627 7.77244 14.7617 7.77244C16.9129 7.77244 18.9381 8.58087 20.5016 10.0726C22.1642 11.6588 23.0797 13.7976 23.0797 16.0944C23.0797 18.605 21.9604 20.9562 20.0087 22.5447Z" fill="#22346E"/>
</svg>
