<svg width="36" height="31" viewBox="0 0 36 31" fill="none" xmlns="http://www.w3.org/2000/svg">
<path d="M25.7549 18.9352L25.4049 16.1352C25.0549 16.0352 24.6674 15.8685 24.2424 15.6352C23.8174 15.4018 23.4632 15.1518 23.1799 14.8852L20.6049 15.9852L19.0049 13.1852L21.2299 11.5102C21.1965 11.3102 21.1674 11.1018 21.1424 10.8852C21.1174 10.6685 21.1049 10.4602 21.1049 10.2602C21.1049 10.0768 21.1174 9.88099 21.1424 9.67266C21.1674 9.46432 21.1965 9.22682 21.2299 8.96016L19.0049 7.28516L20.6049 4.53516L23.1549 5.61016C23.4882 5.32682 23.8507 5.07266 24.2424 4.84766C24.634 4.62266 25.0132 4.45182 25.3799 4.33516L25.7549 1.53516H28.9549L29.3049 4.36016C29.7382 4.51016 30.1174 4.68099 30.4424 4.87266C30.7674 5.06432 31.1049 5.31016 31.4549 5.61016L34.1049 4.53516L35.7049 7.28516L33.3799 9.03516C33.4465 9.26849 33.484 9.48099 33.4924 9.67266C33.5007 9.86432 33.5049 10.0518 33.5049 10.2352C33.5049 10.4018 33.4965 10.581 33.4799 10.7727C33.4632 10.9643 33.4299 11.2018 33.3799 11.4852L35.6549 13.1852L34.0549 15.9852L31.4549 14.8602C31.1049 15.1602 30.7549 15.4143 30.4049 15.6227C30.0549 15.831 29.6882 15.9935 29.3049 16.1102L28.9549 18.9352H25.7549ZM26.3549 18.2352H28.3049L28.6799 15.5102C29.1799 15.3768 29.6257 15.1977 30.0174 14.9727C30.409 14.7477 30.8215 14.4268 31.2549 14.0102L33.7549 15.0852L34.7549 13.3852L32.5549 11.7352C32.6382 11.4352 32.6924 11.1685 32.7174 10.9352C32.7424 10.7018 32.7549 10.4685 32.7549 10.2352C32.7549 9.98516 32.7424 9.75182 32.7174 9.53516C32.6924 9.31849 32.6382 9.06849 32.5549 8.78516L34.8049 7.08516L33.8049 5.38516L31.2299 6.46016C30.9465 6.14349 30.5507 5.83516 30.0424 5.53516C29.534 5.23516 29.0715 5.04349 28.6549 4.96016L28.3549 2.23516H26.3549L26.0549 4.93516C25.5549 5.03516 25.0965 5.20182 24.6799 5.43516C24.2632 5.66849 23.8382 6.00182 23.4049 6.43516L20.9049 5.38516L19.9049 7.08516L22.0799 8.71016C21.9965 8.92682 21.9382 9.16849 21.9049 9.43516C21.8715 9.70182 21.8549 9.97682 21.8549 10.2602C21.8549 10.5102 21.8715 10.7602 21.9049 11.0102C21.9382 11.2602 21.9882 11.5018 22.0549 11.7352L19.9049 13.3852L20.9049 15.0852L23.3799 14.0352C23.7799 14.4352 24.1882 14.7518 24.6049 14.9852C25.0215 15.2185 25.4965 15.4018 26.0299 15.5352L26.3549 18.2352ZM27.3049 12.4352C27.9215 12.4352 28.4424 12.2227 28.8674 11.7977C29.2924 11.3727 29.5049 10.8518 29.5049 10.2352C29.5049 9.61849 29.2924 9.09766 28.8674 8.67266C28.4424 8.24766 27.9215 8.03516 27.3049 8.03516C26.6882 8.03516 26.1674 8.24766 25.7424 8.67266C25.3174 9.09766 25.1049 9.61849 25.1049 10.2352C25.1049 10.8518 25.3174 11.3727 25.7424 11.7977C26.1674 12.2227 26.6882 12.4352 27.3049 12.4352Z" fill="#22346E"/>
<path d="M4.31637 15.6301H0.33418C0.152408 15.6301 0.00488281 15.4826 0.00488281 15.3008C0.00488281 15.1191 0.152408 14.9715 0.33418 14.9715H4.31604C4.49781 14.9715 4.64533 15.1191 4.64533 15.3008C4.64533 15.4826 4.49814 15.6301 4.31637 15.6301Z" fill="#22346E"/>
<path d="M14.7708 5.17561C14.5891 5.17561 14.4415 5.02808 14.4415 4.84631V0.864453C14.4415 0.682681 14.5891 0.535156 14.7708 0.535156C14.9526 0.535156 15.1001 0.682681 15.1001 0.864453V4.84631C15.1001 5.02841 14.9526 5.17561 14.7708 5.17561Z" fill="#22346E"/>
<path d="M7.37847 8.23774C7.29417 8.23774 7.20987 8.20547 7.14566 8.14125L4.32984 5.32576C4.20109 5.19701 4.20109 4.98889 4.32984 4.86014C4.4586 4.73138 4.66671 4.73138 4.79547 4.86014L7.61129 7.67563C7.74004 7.80438 7.74004 8.0125 7.61129 8.14125C7.54674 8.20547 7.46244 8.23774 7.37847 8.23774Z" fill="#22346E"/>
<path d="M14.7604 18.411C14.2141 18.411 13.6901 18.196 13.3022 17.8081C12.8758 17.3813 12.6585 16.7902 12.7059 16.1863C12.7846 15.1899 13.5953 14.3791 14.5918 14.3004C15.1957 14.253 15.7868 14.47 16.2135 14.8968C16.6403 15.3235 16.8576 15.9146 16.8102 16.5186C16.7319 17.515 15.9211 18.3257 14.9243 18.4048C14.8694 18.4087 14.8147 18.411 14.7604 18.411ZM14.7554 14.9528C14.7182 14.9528 14.6807 14.9541 14.6435 14.9574C13.9664 15.0107 13.4158 15.5613 13.3625 16.2383C13.3299 16.65 13.4777 17.0527 13.7675 17.3428C14.0576 17.6329 14.4584 17.7804 14.872 17.7482C15.549 17.6948 16.0999 17.1439 16.153 16.4672C16.1856 16.0552 16.0374 15.6528 15.7476 15.3627C15.4842 15.099 15.1275 14.9528 14.7554 14.9528Z" fill="#22346E"/>
<path d="M16.0298 24.6641H15.3712V20.3895C15.3712 20.0532 15.5816 19.7542 15.8941 19.6462C16.0274 19.6001 16.1585 19.5458 16.2833 19.4849C16.5803 19.3397 16.9393 19.4016 17.1764 19.6383L17.2353 19.6969L18.1027 18.8296L18.0444 18.7713C17.807 18.5339 17.7451 18.1749 17.8899 17.8782C17.9519 17.7518 18.0062 17.6211 18.0516 17.489C18.16 17.1758 18.4586 16.9658 18.7952 16.9658H18.8742V15.7391H18.7949C18.4586 15.7391 18.16 15.529 18.0516 15.2165C18.0059 15.0835 17.9515 14.9528 17.8899 14.827C17.7451 14.5299 17.807 14.171 18.0444 13.9339L18.1027 13.8756L17.2353 13.0083L17.1767 13.0665C16.9396 13.304 16.581 13.3655 16.2836 13.2207C16.1575 13.1591 16.0268 13.1044 15.8941 13.0586C15.5816 12.951 15.3712 12.6523 15.3712 12.3158V12.2364H14.1445V12.3158C14.1445 12.6523 13.9344 12.951 13.6216 13.059C13.4886 13.1051 13.3575 13.1594 13.2324 13.2207C12.9353 13.3659 12.5764 13.304 12.3393 13.0669L12.281 13.0086L11.4133 13.876L11.4716 13.9342C11.709 14.1717 11.771 14.5303 11.6257 14.827C11.5638 14.9537 11.5092 15.0848 11.4641 15.2162C11.3557 15.5294 11.0574 15.7395 10.7208 15.7395H10.6415V16.9661H10.7208C11.057 16.9661 11.3557 17.1762 11.4641 17.4887C11.5095 17.6201 11.5638 17.7515 11.6261 17.8789C11.771 18.1753 11.709 18.5342 11.472 18.7716L11.4137 18.8299L12.2814 19.6973L12.3393 19.639C12.5771 19.4019 12.9363 19.3403 13.2324 19.4849C13.3575 19.5465 13.4886 19.6008 13.6216 19.6466C13.9344 19.7546 14.1445 20.0532 14.1445 20.3898V24.6644H13.4859V20.3895C13.4859 20.3345 13.4533 20.2851 13.4066 20.2689C13.2479 20.2143 13.0918 20.1494 12.9426 20.076C12.8998 20.0552 12.8425 20.0664 12.8046 20.1046L12.6429 20.2666C12.4427 20.4658 12.1184 20.4655 11.9195 20.2666L10.8437 19.1911C10.6444 18.9913 10.6448 18.6669 10.8437 18.468L11.006 18.3057C11.0439 18.2678 11.0554 18.2112 11.034 18.1677C10.9599 18.0159 10.8954 17.8598 10.8414 17.7034C10.8252 17.6573 10.7755 17.6247 10.7205 17.6247H10.4939C10.2121 17.6247 9.98254 17.3955 9.98254 17.1133V15.5923C9.98254 15.3104 10.2121 15.0809 10.4939 15.0809H10.7205C10.7755 15.0809 10.8249 15.0483 10.8414 15.0015C10.8954 14.8448 10.9602 14.6887 11.0337 14.5378C11.0547 14.4944 11.0432 14.4377 11.0057 14.3999L10.8433 14.2375C10.6441 14.0383 10.6441 13.7139 10.843 13.5144L11.9191 12.4386C12.1184 12.2397 12.4424 12.2394 12.6423 12.4382L12.8049 12.6013C12.8428 12.6391 12.8998 12.6506 12.9429 12.6289C13.0918 12.5561 13.2475 12.4913 13.4062 12.4366C13.4533 12.4205 13.4859 12.3707 13.4859 12.3158V12.0892C13.4859 11.8073 13.7155 11.5778 13.9973 11.5778H15.5184C15.8002 11.5778 16.0298 11.8073 16.0298 12.0892V12.3158C16.0298 12.3707 16.0624 12.4201 16.1091 12.4363C16.2668 12.4909 16.4226 12.5555 16.5724 12.6289C16.6166 12.6497 16.6729 12.6385 16.7107 12.6009L16.8731 12.4386C17.0726 12.239 17.3973 12.2394 17.5962 12.4386L18.672 13.5141C18.8713 13.7136 18.8709 14.038 18.672 14.2372L18.5097 14.3995C18.4718 14.4374 18.4603 14.4944 18.4814 14.5375C18.5548 14.687 18.6197 14.8431 18.674 15.0015C18.6901 15.0479 18.7395 15.0805 18.7945 15.0805H19.0211C19.303 15.0805 19.5325 15.31 19.5325 15.5919V17.1129C19.5325 17.3948 19.3033 17.6243 19.0211 17.6243H18.7949C18.7399 17.6243 18.6901 17.6573 18.674 17.7037C18.6197 17.8611 18.5551 18.0169 18.4814 18.1674C18.4603 18.2108 18.4718 18.2675 18.5097 18.3053L18.672 18.4677C18.8709 18.6666 18.8713 18.9909 18.6727 19.1902L17.5962 20.2663C17.3967 20.4658 17.072 20.4652 16.8731 20.2663L16.7107 20.104C16.6729 20.0661 16.6156 20.0549 16.5728 20.076C16.4239 20.1491 16.2678 20.2139 16.1091 20.2686C16.0624 20.2847 16.0298 20.3341 16.0298 20.3891V24.6641Z" fill="#22346E"/>
<path d="M20.9561 9.59609C19.163 7.88539 16.8069 7.00518 14.3247 7.12439C9.86863 7.33415 6.21014 10.8365 5.81433 15.2718C5.53212 18.4354 6.88849 21.4452 9.44318 23.3225C10.244 23.9109 10.7218 24.8955 10.7218 25.9562V28.4009C10.7218 29.3776 11.5164 30.1722 12.4931 30.1722H17.3209C18.2976 30.1722 19.0922 29.3776 19.0922 28.4009V25.7313C19.0922 24.7204 19.5779 23.745 20.4242 23.0558C22.5304 21.3418 23.7383 18.8045 23.7383 16.0948C23.7383 13.6155 22.7501 11.3078 20.9561 9.59609ZM17.3209 29.5133H12.4931C11.8796 29.5133 11.3804 29.0141 11.3804 28.4006V26.2852H18.4336V28.4006C18.4336 29.0141 17.9344 29.5133 17.3209 29.5133ZM20.0087 22.5447C19.0366 23.3357 18.4718 24.4546 18.4396 25.6266H11.3617C11.2708 24.4846 10.7172 23.4414 9.83307 22.7917C7.46575 21.0517 6.20882 18.2622 6.47029 15.3301C6.83679 11.2212 10.2269 7.97628 14.3556 7.78199C14.4916 7.77541 14.627 7.77244 14.7617 7.77244C16.9129 7.77244 18.9381 8.58087 20.5016 10.0726C22.1642 11.6588 23.0797 13.7976 23.0797 16.0944C23.0797 18.605 21.9604 20.9562 20.0087 22.5447Z" fill="#22346E"/>
</svg>
