<svg width="61" height="39" viewBox="0 0 61 39" fill="none" xmlns="http://www.w3.org/2000/svg">
<path d="M9.00488 38.4839V36.4839H17.0049V29.3839C17.0049 27.4339 16.3257 25.7797 14.9674 24.4214C13.609 23.0631 11.9549 22.3839 10.0049 22.3839C8.05488 22.3839 6.40072 23.0631 5.04238 24.4214C3.68405 25.7797 3.00488 27.4339 3.00488 29.3839V35.4839H2.00488C1.45488 35.4839 0.98405 35.2881 0.592383 34.8964C0.200716 34.5047 0.00488281 34.0339 0.00488281 33.4839V31.4839C0.00488281 31.1339 0.0923828 30.8047 0.267383 30.4964C0.442383 30.1881 0.688216 29.9422 1.00488 29.7589L1.07988 28.4339C1.21322 27.3006 1.54238 26.2506 2.06738 25.2839C2.59238 24.3172 3.25072 23.4756 4.04238 22.7589C4.83405 22.0422 5.74238 21.4839 6.76738 21.0839C7.79238 20.6839 8.87155 20.4839 10.0049 20.4839C11.1382 20.4839 12.2132 20.6839 13.2299 21.0839C14.2465 21.4839 15.1549 22.0381 15.9549 22.7464C16.7549 23.4547 17.4132 24.2922 17.9299 25.2589C18.4466 26.2256 18.7799 27.2756 18.9299 28.4089L19.0049 29.7089C19.3216 29.8589 19.5674 30.0839 19.7424 30.3839C19.9174 30.6839 20.0049 31.0006 20.0049 31.3339V33.6339C20.0049 33.9672 19.9174 34.2839 19.7424 34.5839C19.5674 34.8839 19.3216 35.1089 19.0049 35.2589V36.4839C19.0049 37.0339 18.809 37.5047 18.4174 37.8964C18.0257 38.2881 17.5549 38.4839 17.0049 38.4839H9.00488ZM7.00488 31.4839C6.72155 31.4839 6.48405 31.3881 6.29238 31.1964C6.10072 31.0047 6.00488 30.7672 6.00488 30.4839C6.00488 30.2006 6.10072 29.9631 6.29238 29.7714C6.48405 29.5797 6.72155 29.4839 7.00488 29.4839C7.28822 29.4839 7.52572 29.5797 7.71738 29.7714C7.90905 29.9631 8.00488 30.2006 8.00488 30.4839C8.00488 30.7672 7.90905 31.0047 7.71738 31.1964C7.52572 31.3881 7.28822 31.4839 7.00488 31.4839ZM13.0049 31.4839C12.7215 31.4839 12.484 31.3881 12.2924 31.1964C12.1007 31.0047 12.0049 30.7672 12.0049 30.4839C12.0049 30.2006 12.1007 29.9631 12.2924 29.7714C12.484 29.5797 12.7215 29.4839 13.0049 29.4839C13.2882 29.4839 13.5257 29.5797 13.7174 29.7714C13.909 29.9631 14.0049 30.2006 14.0049 30.4839C14.0049 30.7672 13.909 31.0047 13.7174 31.1964C13.5257 31.3881 13.2882 31.4839 13.0049 31.4839ZM4.02988 29.9339C3.91322 28.1672 4.44655 26.6506 5.62988 25.3839C6.81322 24.1172 8.28822 23.4839 10.0549 23.4839C11.5382 23.4839 12.8424 23.9547 13.9674 24.8964C15.0924 25.8381 15.7715 27.0422 16.0049 28.5089C14.4882 28.4922 13.0924 28.0839 11.8174 27.2839C10.5424 26.4839 9.56322 25.4006 8.87988 24.0339C8.61322 25.3672 8.05072 26.5547 7.19238 27.5964C6.33405 28.6381 5.27988 29.4172 4.02988 29.9339Z" fill="#22346E"/>
<path d="M49.5693 12.0134C49.6355 12.0134 49.6893 12.0734 49.6893 12.1473V35.0496H16.32V12.1473C16.32 12.0734 16.3738 12.0134 16.44 12.0134H49.5693ZM49.5693 10.4839H16.4404C15.6173 10.4839 14.9502 11.2285 14.9502 12.1473V36.5786H51.0595V12.1473C51.0595 11.2285 50.3924 10.4839 49.5693 10.4839Z" fill="#22346E"/>
<path d="M52.9215 15.4839C51.8396 15.4839 50.817 15.287 49.8538 14.8933C48.8906 14.4995 48.0495 13.962 47.3304 13.2808C46.6113 12.5995 46.0439 11.8026 45.6283 10.8901C45.2127 9.97764 45.0049 9.00889 45.0049 7.98389C45.0049 6.94639 45.2127 5.97451 45.6283 5.06826C46.0439 4.16201 46.6113 3.36826 47.3304 2.68701C48.0495 2.00576 48.8906 1.46826 49.8538 1.07451C50.817 0.680762 51.8396 0.483887 52.9215 0.483887C54.0167 0.483887 55.0426 0.680762 55.9992 1.07451C56.9558 1.46826 57.7936 2.00576 58.5127 2.68701C59.2318 3.36826 59.7992 4.16201 60.2148 5.06826C60.6304 5.97451 60.8382 6.94639 60.8382 7.98389C60.8382 9.00889 60.6304 9.97764 60.2148 10.8901C59.7992 11.8026 59.2318 12.5995 58.5127 13.2808C57.7936 13.962 56.9558 14.4995 55.9992 14.8933C55.0426 15.287 54.0167 15.4839 52.9215 15.4839ZM52.9215 13.9464C53.2646 13.4964 53.5615 13.0276 53.8122 12.5401C54.0629 12.0526 54.2674 11.5339 54.4257 10.9839H51.4174C51.5757 11.5339 51.7802 12.0526 52.0309 12.5401C52.2816 13.0276 52.5785 13.4964 52.9215 13.9464ZM50.8632 13.6464C50.6257 13.2339 50.4179 12.8058 50.2398 12.362C50.0617 11.9183 49.9132 11.4589 49.7945 10.9839H47.459C47.8417 11.6089 48.32 12.1526 48.8939 12.6151C49.4679 13.0776 50.1243 13.4214 50.8632 13.6464ZM54.9799 13.6464C55.7188 13.4214 56.3752 13.0776 56.9492 12.6151C57.5231 12.1526 58.0014 11.6089 58.384 10.9839H56.0486C55.9299 11.4589 55.7814 11.9183 55.6033 12.362C55.4252 12.8058 55.2174 13.2339 54.9799 13.6464ZM46.7861 9.48389H49.4778C49.4382 9.23389 49.4085 8.98701 49.3887 8.74326C49.3689 8.49951 49.359 8.24639 49.359 7.98389C49.359 7.72139 49.3689 7.46826 49.3887 7.22451C49.4085 6.98076 49.4382 6.73389 49.4778 6.48389H46.7861C46.7202 6.73389 46.6707 6.98076 46.6377 7.22451C46.6047 7.46826 46.5882 7.72139 46.5882 7.98389C46.5882 8.24639 46.6047 8.49951 46.6377 8.74326C46.6707 8.98701 46.7202 9.23389 46.7861 9.48389ZM51.0611 9.48389H54.782C54.8215 9.23389 54.8512 8.98701 54.871 8.74326C54.8908 8.49951 54.9007 8.24639 54.9007 7.98389C54.9007 7.72139 54.8908 7.46826 54.871 7.22451C54.8512 6.98076 54.8215 6.73389 54.782 6.48389H51.0611C51.0215 6.73389 50.9919 6.98076 50.9721 7.22451C50.9523 7.46826 50.9424 7.72139 50.9424 7.98389C50.9424 8.24639 50.9523 8.49951 50.9721 8.74326C50.9919 8.98701 51.0215 9.23389 51.0611 9.48389ZM56.3653 9.48389H59.057C59.1229 9.23389 59.1724 8.98701 59.2054 8.74326C59.2384 8.49951 59.2549 8.24639 59.2549 7.98389C59.2549 7.72139 59.2384 7.46826 59.2054 7.22451C59.1724 6.98076 59.1229 6.73389 59.057 6.48389H56.3653C56.4049 6.73389 56.4346 6.98076 56.4544 7.22451C56.4742 7.46826 56.484 7.72139 56.484 7.98389C56.484 8.24639 56.4742 8.49951 56.4544 8.74326C56.4346 8.98701 56.4049 9.23389 56.3653 9.48389ZM56.0486 4.98389H58.384C58.0014 4.35889 57.5231 3.81514 56.9492 3.35264C56.3752 2.89014 55.7188 2.54639 54.9799 2.32139C55.2174 2.73389 55.4252 3.16201 55.6033 3.60576C55.7814 4.04951 55.9299 4.50889 56.0486 4.98389ZM51.4174 4.98389H54.4257C54.2674 4.43389 54.0629 3.91514 53.8122 3.42764C53.5615 2.94014 53.2646 2.47139 52.9215 2.02139C52.5785 2.47139 52.2816 2.94014 52.0309 3.42764C51.7802 3.91514 51.5757 4.43389 51.4174 4.98389ZM47.459 4.98389H49.7945C49.9132 4.50889 50.0617 4.04951 50.2398 3.60576C50.4179 3.16201 50.6257 2.73389 50.8632 2.32139C50.1243 2.54639 49.4679 2.89014 48.8939 3.35264C48.32 3.81514 47.8417 4.35889 47.459 4.98389Z" fill="#22346E"/>
</svg>
