<svg width="20" height="21" viewBox="0 0 20 21" fill="none" xmlns="http://www.w3.org/2000/svg">
<path d="M20.0049 17.7061C20.0049 19.2406 18.7616 20.4839 17.2271 20.4839H2.78266C1.24877 20.4839 0.00488281 19.2406 0.00488281 17.7061V3.26166C0.00488281 1.72722 1.24877 0.483887 2.78266 0.483887H17.2271C18.7616 0.483887 20.0049 1.72722 20.0049 3.26166V17.7061Z" fill="#0288D1"/>
<path d="M3.33838 7.70609H6.11616V17.1505H3.33838V7.70609ZM4.71893 6.59498H4.70338C3.87449 6.59498 3.33838 5.9772 3.33838 5.20553C3.33838 4.4172 3.89116 3.8172 4.73505 3.8172C5.58005 3.8172 6.1006 4.4172 6.11616 5.20553C6.11616 5.97664 5.58005 6.59498 4.71893 6.59498ZM16.6717 17.1505H13.8939V12.0955C13.8939 10.8744 13.2134 10.0411 12.1206 10.0411C11.2867 10.0411 10.8356 10.6033 10.6167 11.1466C10.5367 11.3411 10.5606 11.8789 10.5606 12.1505V17.1505H7.78282V7.70609H10.5606V9.15942C10.9612 8.53942 11.5884 7.70609 13.1928 7.70609C15.1806 7.70609 16.6712 8.95609 16.6712 11.7472L16.6717 17.1505Z" fill="white"/>
</svg>
