<svg width="20" height="20" viewBox="0 0 20 20" fill="none" xmlns="http://www.w3.org/2000/svg">
<path d="M20 17.2222C20 18.7567 18.7567 20 17.2222 20H2.77778C1.24389 20 0 18.7567 0 17.2222V2.77778C0 1.24333 1.24389 0 2.77778 0H17.2222C18.7567 0 20 1.24333 20 2.77778V17.2222Z" fill="#0288D1"/>
<path d="M3.3335 7.22214H6.11127V16.6666H3.3335V7.22214ZM4.71405 6.11103H4.6985C3.86961 6.11103 3.3335 5.49325 3.3335 4.72159C3.3335 3.93325 3.88627 3.33325 4.73016 3.33325C5.57516 3.33325 6.09572 3.93325 6.11127 4.72159C6.11127 5.4927 5.57516 6.11103 4.71405 6.11103ZM16.6668 16.6666H13.8891V11.6116C13.8891 10.3905 13.2085 9.55714 12.1157 9.55714C11.2818 9.55714 10.8307 10.1194 10.6118 10.6627C10.5318 10.8571 10.5557 11.3949 10.5557 11.6666V16.6666H7.77794V7.22214H10.5557V8.67547C10.9563 8.05547 11.5835 7.22214 13.1879 7.22214C15.1757 7.22214 16.6663 8.47214 16.6663 11.2633L16.6668 16.6666Z" fill="white"/>
</svg>
