<svg width="30" height="30" viewBox="0 0 30 30" fill="none" xmlns="http://www.w3.org/2000/svg">
<path d="M13.6301 30V27.2603C10.7763 26.9406 8.32763 25.7591 6.28425 23.7158C4.24087 21.6724 3.05936 19.2237 2.73973 16.3699H0V13.6301H2.73973C3.05936 10.7763 4.24087 8.32763 6.28425 6.28425C8.32763 4.24087 10.7763 3.05936 13.6301 2.73973V0H16.3699V2.73973C19.2237 3.05936 21.6724 4.24087 23.7158 6.28425C25.7591 8.32763 26.9406 10.7763 27.2603 13.6301H30V16.3699H27.2603C26.9406 19.2237 25.7591 21.6724 23.7158 23.7158C21.6724 25.7591 19.2237 26.9406 16.3699 27.2603V30H13.6301ZM15 24.589C17.6484 24.589 19.9087 23.653 21.7808 21.7808C23.653 19.9087 24.589 17.6484 24.589 15C24.589 12.3516 23.653 10.0913 21.7808 8.21918C19.9087 6.34703 17.6484 5.41096 15 5.41096C12.3516 5.41096 10.0913 6.34703 8.21918 8.21918C6.34703 10.0913 5.41096 12.3516 5.41096 15C5.41096 17.6484 6.34703 19.9087 8.21918 21.7808C10.0913 23.653 12.3516 24.589 15 24.589ZM15 20.4795C13.4932 20.4795 12.2032 19.9429 11.1301 18.8699C10.0571 17.7968 9.52055 16.5068 9.52055 15C9.52055 13.4932 10.0571 12.2032 11.1301 11.1301C12.2032 10.0571 13.4932 9.52055 15 9.52055C16.5068 9.52055 17.7968 10.0571 18.8699 11.1301C19.9429 12.2032 20.4795 13.4932 20.4795 15C20.4795 16.5068 19.9429 17.7968 18.8699 18.8699C17.7968 19.9429 16.5068 20.4795 15 20.4795ZM15 17.7397C15.7534 17.7397 16.3984 17.4715 16.9349 16.9349C17.4715 16.3984 17.7397 15.7534 17.7397 15C17.7397 14.2466 17.4715 13.6016 16.9349 13.0651C16.3984 12.5285 15.7534 12.2603 15 12.2603C14.2466 12.2603 13.6016 12.5285 13.0651 13.0651C12.5285 13.6016 12.2603 14.2466 12.2603 15C12.2603 15.7534 12.5285 16.3984 13.0651 16.9349C13.6016 17.4715 14.2466 17.7397 15 17.7397Z" fill="#22346E"/>
</svg>
