<svg width="47" height="41" viewBox="0 0 47 41" fill="none" xmlns="http://www.w3.org/2000/svg">
<path d="M41.135 40.5352H22.4636C19.3402 40.5352 16.7993 38.5054 16.7993 36.0103V5.06005C16.7993 2.56493 19.3402 0.535156 22.4636 0.535156H41.135C44.2579 0.535156 46.7993 2.56493 46.7993 5.06005V36.0107C46.7993 38.5054 44.2584 40.5352 41.135 40.5352ZM22.4636 2.31293C20.5675 2.31293 19.0248 3.54493 19.0248 5.06005V36.0107C19.0248 37.5254 20.567 38.7578 22.4636 38.7578H41.135C43.0311 38.7578 44.5739 37.5258 44.5739 36.0107V5.06005C44.5739 3.54493 43.0311 2.31293 41.135 2.31293H22.4636Z" fill="#22346E"/>
<path d="M31.8014 37.2142C32.7982 37.2142 33.6062 36.5687 33.6062 35.7725C33.6062 34.9762 32.7982 34.3307 31.8014 34.3307C30.8046 34.3307 29.9966 34.9762 29.9966 35.7725C29.9966 36.5687 30.8046 37.2142 31.8014 37.2142Z" fill="#22346E"/>
<path d="M35.2088 5.83503H28.3901C27.7758 5.83503 27.2773 5.43681 27.2773 4.94614C27.2773 4.45547 27.7758 4.05725 28.3901 4.05725H35.2088C35.823 4.05725 36.3215 4.45547 36.3215 4.94614C36.3215 5.43681 35.823 5.83503 35.2088 5.83503Z" fill="#22346E"/>
<path d="M23.2612 15.3171H10.6907C10.3786 15.3171 10.1252 15.1223 10.1252 14.8823V9.07743C10.1252 8.83739 10.3786 8.64258 10.6907 8.64258C11.0028 8.64258 11.2561 8.83739 11.2561 9.07743V14.447H23.2612C23.5734 14.447 23.8267 14.6418 23.8267 14.8818C23.8267 15.1219 23.5739 15.3171 23.2612 15.3171Z" fill="#22346E"/>
<path d="M8.68056 29.2762C8.36843 29.2762 8.11511 29.0818 8.11511 28.8413V25.4573C8.11511 25.2168 8.36843 25.0225 8.68056 25.0225H23.6961C24.0082 25.0225 24.2616 25.2168 24.2616 25.4573C24.2616 25.6978 24.0082 25.8922 23.6961 25.8922H9.24601V28.8409C9.24601 29.0814 8.99269 29.2762 8.68056 29.2762Z" fill="#22346E"/>
<path d="M26.525 20.8092H6.70595C6.39382 20.8092 6.1405 20.6143 6.1405 20.3743C6.1405 20.1343 6.39382 19.9395 6.70595 19.9395H26.525C26.8377 19.9395 27.0905 20.1343 27.0905 20.3743C27.091 20.6143 26.8377 20.8092 26.525 20.8092Z" fill="#22346E"/>
<path d="M10.6907 9.51247C8.9061 9.51247 7.45459 8.39577 7.45459 7.02381C7.45459 5.65186 8.90667 4.53516 10.6907 4.53516C12.4747 4.53516 13.9267 5.65186 13.9267 7.02381C13.9267 8.39577 12.4752 9.51247 10.6907 9.51247ZM10.6907 5.40486C9.5298 5.40486 8.58549 6.13106 8.58549 7.02381C8.58549 7.91656 9.5298 8.64277 10.6907 8.64277C11.8515 8.64277 12.7958 7.91656 12.7958 7.02381C12.7958 6.13106 11.8515 5.40486 10.6907 5.40486Z" fill="#22346E"/>
<path d="M30.0354 22.5129C28.2508 22.5129 26.7993 21.3962 26.7993 20.0242C26.7993 18.6519 28.2508 17.5352 30.0354 17.5352C31.82 17.5352 33.2715 18.6519 33.2715 20.0242C33.2715 21.3962 31.82 22.5129 30.0354 22.5129ZM30.0354 18.4049C28.8751 18.4049 27.9302 19.1311 27.9302 20.0238C27.9302 20.9166 28.8745 21.6428 30.0354 21.6428C31.1963 21.6428 32.1406 20.9166 32.1406 20.0238C32.1406 19.1311 31.1957 18.4049 30.0354 18.4049Z" fill="#22346E"/>
<path d="M4.03539 22.8635C2.25083 22.8635 0.799316 21.7468 0.799316 20.3744C0.799316 19.002 2.25139 17.8857 4.03539 17.8857C5.81996 17.8857 7.27204 19.0024 7.27204 20.3744C7.27204 21.7468 5.81996 22.8635 4.03539 22.8635ZM4.03539 18.7559C2.87452 18.7559 1.93022 19.4821 1.93022 20.3748C1.93022 21.2676 2.87452 21.9938 4.03539 21.9938C5.19626 21.9938 6.14057 21.2676 6.14057 20.3748C6.14057 19.4821 5.19626 18.7559 4.03539 18.7559Z" fill="#22346E"/>
<path d="M8.68066 33.384C6.89609 33.384 5.44458 32.2673 5.44458 30.8949C5.44458 29.5225 6.89666 28.4062 8.68066 28.4062C10.4647 28.4062 11.9167 29.5225 11.9167 30.8949C11.9167 32.2673 10.4647 33.384 8.68066 33.384ZM8.68066 29.276C7.51979 29.276 6.57548 30.0022 6.57548 30.8949C6.57548 31.7877 7.51979 32.5143 8.68066 32.5143C9.84153 32.5143 10.7858 31.7881 10.7858 30.8949C10.7853 30.0022 9.84096 29.276 8.68066 29.276Z" fill="#22346E"/>
<path d="M23.7993 15.5352L23.7993 24.5352" stroke="#22346E" stroke-linecap="round"/>
</svg>
