<svg width="25" height="25" viewBox="0 0 25 25" fill="none" xmlns="http://www.w3.org/2000/svg">
<path d="M9.45521 17.3611H10.8441V7.63889H9.45521V17.3611ZM14.1559 17.3611H15.5448V7.63889H14.1559V17.3611ZM12.5045 25C10.776 25 9.15093 24.672 7.62917 24.016C6.10764 23.36 4.78403 22.4697 3.65833 21.3451C2.53264 20.2206 1.64155 18.8981 0.985069 17.3778C0.328356 15.8576 0 14.2332 0 12.5045C0 10.776 0.328009 9.15093 0.984028 7.62917C1.64005 6.10764 2.53032 4.78403 3.65486 3.65833C4.7794 2.53264 6.10185 1.64155 7.62222 0.985069C9.14236 0.328356 10.7668 0 12.4955 0C14.224 0 15.8491 0.32801 17.3708 0.984029C18.8924 1.64005 20.216 2.53032 21.3417 3.65486C22.4674 4.7794 23.3584 6.10185 24.0149 7.62222C24.6716 9.14236 25 10.7668 25 12.4955C25 14.224 24.672 15.8491 24.016 17.3708C23.36 18.8924 22.4697 20.216 21.3451 21.3417C20.2206 22.4674 18.8981 23.3584 17.3778 24.0149C15.8576 24.6716 14.2332 25 12.5045 25ZM12.5 23.6111C15.6019 23.6111 18.2292 22.5347 20.3819 20.3819C22.5347 18.2292 23.6111 15.6019 23.6111 12.5C23.6111 9.39815 22.5347 6.77083 20.3819 4.61806C18.2292 2.46528 15.6019 1.38889 12.5 1.38889C9.39815 1.38889 6.77083 2.46528 4.61806 4.61806C2.46528 6.77083 1.38889 9.39815 1.38889 12.5C1.38889 15.6019 2.46528 18.2292 4.61806 20.3819C6.77083 22.5347 9.39815 23.6111 12.5 23.6111Z" fill="black"/>
</svg>
