<svg width="25" height="26" viewBox="0 0 25 26" fill="none" xmlns="http://www.w3.org/2000/svg">
<path d="M23.5466 25.4844C20.653 25.4844 17.7942 24.8536 14.9702 23.592C12.1461 22.3304 9.57664 20.5422 7.26183 18.2274C4.94701 15.9126 3.15882 13.3432 1.89724 10.5191C0.63567 7.69502 0.00488281 4.83623 0.00488281 1.94271C0.00488281 1.52604 0.143772 1.17882 0.421549 0.901042C0.699327 0.623264 1.04655 0.484375 1.46322 0.484375H7.08822C7.41229 0.484375 7.70164 0.594329 7.95627 0.814236C8.2109 1.03414 8.36136 1.29456 8.40766 1.59549L9.31044 6.4566C9.35674 6.82697 9.34516 7.13947 9.27572 7.3941C9.20627 7.64873 9.07896 7.86863 8.89377 8.05382L5.52572 11.4566C5.98868 12.3131 6.53845 13.1406 7.17502 13.9392C7.8116 14.7378 8.51183 15.5075 9.27572 16.2483C9.99331 16.9659 10.7456 17.6314 11.5327 18.2448C12.3197 18.8582 13.153 19.4196 14.0327 19.9288L17.2966 16.6649C17.5049 16.4566 17.7769 16.3003 18.1125 16.1962C18.4482 16.092 18.778 16.0631 19.1021 16.1094L23.8938 17.0816C24.2178 17.1742 24.4841 17.342 24.6924 17.5851C24.9007 17.8281 25.0049 18.1001 25.0049 18.401V24.026C25.0049 24.4427 24.866 24.7899 24.5882 25.0677C24.3104 25.3455 23.9632 25.4844 23.5466 25.4844Z" fill="#22346E"/>
</svg>
