<svg width="41" height="41" viewBox="0 0 41 41" fill="none" xmlns="http://www.w3.org/2000/svg">
<path d="M27.1481 18.9329C27.0859 18.9329 27.0241 18.9172 26.9655 18.8854C26.8064 18.7978 26.7037 18.6048 26.7037 18.3923V15.2608H24.6939C23.8317 15.2608 23.1295 14.4071 23.1295 13.3583V2.40255C23.1295 1.35369 23.8313 0.5 24.6939 0.5H38.5893C39.4516 0.5 40.1533 1.35369 40.1533 2.40255V13.3583C40.1533 14.4071 39.452 15.2608 38.5893 15.2608H30.7392L27.4419 18.7978C27.3592 18.8864 27.2548 18.9329 27.1481 18.9329ZM24.6939 1.5813C24.3215 1.5813 24.0184 1.95002 24.0184 2.40255V13.3583C24.0184 13.8108 24.3215 14.1795 24.6939 14.1795H27.1481C27.3939 14.1795 27.5926 14.4217 27.5926 14.7202V17.1947L30.2774 14.3147C30.3588 14.2276 30.4632 14.1795 30.5712 14.1795H38.5889C38.9609 14.1795 39.264 13.8113 39.264 13.3583V2.40255C39.264 1.95002 38.9609 1.5813 38.5889 1.5813H24.6939Z" fill="#22346E"/>
<path d="M21.3992 40.4999H6.50963C4.55321 40.4999 2.96167 38.5639 2.96167 36.1839V23.1581C2.96167 20.7781 4.55365 18.842 6.50963 18.842H21.3988C23.3552 18.842 24.9468 20.7787 24.9468 23.1581V36.1839C24.9472 38.5639 23.3557 40.4999 21.3992 40.4999ZM6.50963 19.9233C5.04342 19.9233 3.85055 21.375 3.85055 23.1581V36.1839C3.85055 37.9675 5.04342 39.4186 6.50963 39.4186H21.3988C22.865 39.4186 24.0579 37.967 24.0579 36.1839V23.1581C24.0579 21.3744 22.8646 19.9233 21.3988 19.9233H6.50963Z" fill="#22346E"/>
<path d="M10.363 28.5436C10.1177 28.5436 9.91858 28.302 9.91858 28.003V25.3798C9.91858 25.0808 10.1177 24.8391 10.363 24.8391C10.6083 24.8391 10.8075 25.0808 10.8075 25.3798V28.003C10.8075 28.302 10.6083 28.5436 10.363 28.5436Z" fill="#22346E"/>
<path d="M17.5455 28.5436C17.3002 28.5436 17.1011 28.302 17.1011 28.003V25.3798C17.1011 25.0808 17.3002 24.8391 17.5455 24.8391C17.7908 24.8391 17.99 25.0808 17.99 25.3798V28.003C17.99 28.302 17.7913 28.5436 17.5455 28.5436Z" fill="#22346E"/>
<path d="M13.9545 35.0103C12.6657 35.0103 11.3763 34.4248 10.0964 33.2548C9.89992 33.0753 9.86037 32.7363 10.0079 32.4979C10.1555 32.2589 10.4341 32.2119 10.6301 32.3903C12.8679 34.4361 15.0425 34.4361 17.2785 32.3903C17.4754 32.2124 17.7536 32.2595 17.9007 32.4979C18.0483 32.7363 18.0087 33.0753 17.8127 33.2548C16.5327 34.4248 15.2439 35.0103 13.9545 35.0103Z" fill="#22346E"/>
<path d="M13.9544 19.9233C13.7091 19.9233 13.51 19.6811 13.51 19.3827V14.2119C13.51 13.9135 13.7091 13.6713 13.9544 13.6713C14.1998 13.6713 14.3989 13.9135 14.3989 14.2119V19.3827C14.3989 19.6811 14.1998 19.9233 13.9544 19.9233Z" fill="#22346E"/>
<path d="M27.3108 33.3628H24.5028C24.257 33.3628 24.0583 33.1212 24.0583 32.8222V26.3165C24.0583 26.0175 24.257 25.7759 24.5028 25.7759H27.3108C27.5565 25.7759 27.7552 26.0175 27.7552 26.3165V32.8222C27.7552 33.1212 27.5565 33.3628 27.3108 33.3628ZM24.9472 32.2815H26.8663V26.8572H24.9472V32.2815Z" fill="#22346E"/>
<path d="M3.40617 33.3628H0.59776C0.352429 33.3628 0.15332 33.1212 0.15332 32.8222V26.3165C0.15332 26.0175 0.352429 25.7759 0.59776 25.7759H3.40617C3.6515 25.7759 3.85061 26.0175 3.85061 26.3165V32.8222C3.85061 33.1212 3.6515 33.3628 3.40617 33.3628ZM1.0422 32.2815H2.96173V26.8572H1.0422V32.2815Z" fill="#22346E"/>
<path d="M28.401 8.54822H27.0432C26.7974 8.54822 26.5988 8.30601 26.5988 8.00757C26.5988 7.70913 26.7974 7.46692 27.0432 7.46692H28.401C28.6467 7.46692 28.8454 7.70913 28.8454 8.00757C28.8454 8.30601 28.6463 8.54822 28.401 8.54822Z" fill="#22346E"/>
<path d="M32.4419 8.54822H31.0841C30.8383 8.54822 30.6396 8.30601 30.6396 8.00757C30.6396 7.70913 30.8383 7.46692 31.0841 7.46692H32.4419C32.6876 7.46692 32.8863 7.70913 32.8863 8.00757C32.8863 8.30601 32.6876 8.54822 32.4419 8.54822Z" fill="#22346E"/>
<path d="M36.4827 8.54822H35.125C34.8792 8.54822 34.6805 8.30601 34.6805 8.00757C34.6805 7.70913 34.8792 7.46692 35.125 7.46692H36.4827C36.7285 7.46692 36.9272 7.70913 36.9272 8.00757C36.9272 8.30601 36.7285 8.54822 36.4827 8.54822Z" fill="#22346E"/>
</svg>
