<svg width="40" height="41" viewBox="0 0 40 41" fill="none" xmlns="http://www.w3.org/2000/svg">
<path d="M7.10766 32.6717C8.99655 31.3128 11.0008 30.2381 13.1204 29.4478C15.2401 28.657 17.5349 28.2617 20.0049 28.2617C22.4749 28.2617 24.7697 28.657 26.8893 29.4478C29.009 30.2381 31.0132 31.3128 32.9021 32.6717C34.3695 31.1531 35.5497 29.3598 36.4427 27.2917C37.336 25.2231 37.7827 22.9539 37.7827 20.4839C37.7827 15.558 36.0512 11.3635 32.5882 7.90055C29.1253 4.43759 24.9308 2.70611 20.0049 2.70611C15.079 2.70611 10.8845 4.43759 7.42155 7.90055C3.95859 11.3635 2.22711 15.558 2.22711 20.4839C2.22711 22.9539 2.67377 25.2231 3.5671 27.2917C4.46007 29.3598 5.64025 31.1531 7.10766 32.6717ZM20.0049 21.595C18.133 21.595 16.554 20.9518 15.2677 19.6656C13.9814 18.3793 13.3382 16.8002 13.3382 14.9283C13.3382 13.0565 13.9814 11.4774 15.2677 10.1911C16.554 8.90481 18.133 8.26166 20.0049 8.26166C21.8767 8.26166 23.4558 8.90481 24.7421 10.1911C26.0284 11.4774 26.6715 13.0565 26.6715 14.9283C26.6715 16.8002 26.0284 18.3793 24.7421 19.6656C23.4558 20.9518 21.8767 21.595 20.0049 21.595ZM20.0049 40.4839C17.2156 40.4839 14.6045 39.9646 12.1715 38.9261C9.73859 37.8876 7.62174 36.4681 5.82099 34.6678C4.02062 32.867 2.60118 30.7502 1.56266 28.3172C0.524142 25.8843 0.00488281 23.2731 0.00488281 20.4839C0.00488281 17.6946 0.524142 15.0835 1.56266 12.6506C2.60118 10.2176 4.02062 8.10074 5.82099 6.3C7.62174 4.49963 9.73859 3.08018 12.1715 2.04166C14.6045 1.00314 17.2156 0.483887 20.0049 0.483887C22.7941 0.483887 25.4053 1.00314 27.8382 2.04166C30.2712 3.08018 32.388 4.49963 34.1888 6.3C35.9891 8.10074 37.4086 10.2176 38.4471 12.6506C39.4856 15.0835 40.0049 17.6946 40.0049 20.4839C40.0049 23.2731 39.4856 25.8843 38.4471 28.3172C37.4086 30.7502 35.9891 32.867 34.1888 34.6678C32.388 36.4681 30.2712 37.8876 27.8382 38.9261C25.4053 39.9646 22.7941 40.4839 20.0049 40.4839Z" fill="#5F6368"/>
</svg>
